<svg xmlns="http://www.w3.org/2000/svg" xmlns:xlink="http://www.w3.org/1999/xlink" width="48" height="49" xml:space="preserve" overflow="hidden"><g transform="translate(-696 -272)"><path d="M28 5.5C28 7.70914 26.2091 9.5 24 9.5 21.7909 9.5 20 7.70914 20 5.5 20 3.29086 21.7909 1.5 24 1.5 26.2091 1.5 28 3.29086 28 5.5Z" fill="#FFC000" transform="matrix(1 0 0 1.02083 696 272)"></path><path d="M34.9 26.1 32.1 14.2C32 13.8 31.8 13.4 31.5 13.1 30.3 12.1 28.9 11.4 27.3 10.9 26.2 10.7 25.1 10.5 24 10.5 22.9 10.5 21.8 10.7 20.7 11 19.1 11.4 17.7 12.2 16.5 13.2 16.2 13.5 16 13.9 15.9 14.3L13.1 26.2C13.1 26.3 13 26.5 13 26.7 13 27.8 13.9 28.7 15 28.7 15.9 28.7 16.7 28 16.9 27.2L19 18.5 19 46.5 23 46.5 23 28.5 25 28.5 25 46.5 29 46.5 29 18.4 31.1 27.1C31.3 27.9 32.1 28.6 33 28.6 34.1 28.6 35 27.7 35 26.6 35 26.4 34.9 26.2 34.9 26.1Z" fill="#FFC000" transform="matrix(1 0 0 1.02083 696 272)"></path></g></svg>