<svg xmlns="http://www.w3.org/2000/svg" xmlns:xlink="http://www.w3.org/1999/xlink" width="61" height="61" xml:space="preserve" overflow="hidden"><g transform="translate(-1068 -458)"><path d="M1106.46 491.677C1110.05 493.011 1112.8 494.437 1114.61 495.976 1115.63 496.793 1116.24 498.012 1116.29 499.317L1117.41 508.227C1117.5 508.916 1117.2 509.599 1116.63 509.998 1115.73 510.594 1114.76 511.091 1113.75 511.481L1113.75 512.85C1115.01 512.393 1116.22 511.788 1117.34 511.048 1118.3 510.382 1118.81 509.235 1118.66 508.074L1117.56 499.256C1117.49 497.602 1116.71 496.058 1115.43 495.007 1113.73 493.627 1111.83 492.499 1109.81 491.655 1109.82 489.895 1109.92 479.624 1109.94 475.55 1109.96 474.465 1109.83 473.382 1109.56 472.332 1108.69 469.107 1106.48 466.407 1103.5 464.908 1103.01 464.668 1102.43 464.717 1101.99 465.035L1101.92 465.086 1101.64 464.693C1101.34 464.27 1100.89 463.981 1100.38 463.888 1097.04 463.301 1093.6 464.25 1091.03 466.472 1088.47 468.721 1087.03 471.984 1087.1 475.389L1087.2 491.656C1085.17 492.499 1083.28 493.629 1081.57 495.01 1080.29 496.061 1079.52 497.605 1079.44 499.26L1078.34 508.082C1078.19 509.24 1078.71 510.383 1079.67 511.047 1080.79 511.787 1081.99 512.392 1083.25 512.85L1083.25 511.48C1082.24 511.089 1081.28 510.592 1080.38 509.997 1079.81 509.6 1079.51 508.921 1079.6 508.233L1080.71 499.382 1080.71 499.319C1080.76 498.014 1081.38 496.795 1082.4 495.978 1084.23 494.409 1086.86 493.03 1090.54 491.677 1092.26 492.86 1095.26 493.583 1098.5 493.583 1101.74 493.583 1104.74 492.86 1106.46 491.677ZM1090.01 490.521C1089.47 490.719 1088.96 490.917 1088.47 491.117L1088.37 475.381C1088.31 472.35 1089.58 469.445 1091.85 467.438 1094.14 465.463 1097.19 464.62 1100.16 465.141 1100.34 465.178 1100.5 465.283 1100.6 465.434L1101.25 466.342C1101.45 466.627 1101.85 466.694 1102.14 466.49L1102.72 466.072C1102.78 466.027 1102.86 466.018 1102.93 466.046 1105.59 467.383 1107.56 469.792 1108.33 472.667 1108.57 473.607 1108.69 474.574 1108.67 475.544 1108.65 479.313 1108.56 488.396 1108.54 491.12 1108.06 490.926 1107.56 490.733 1107.04 490.54L1105.01 489.706C1104.53 489.511 1104.22 489.046 1104.22 488.53L1104.22 486.409C1106.23 484.723 1107.4 482.231 1107.4 479.604L1107.4 476.427C1107.4 475.374 1106.54 474.521 1105.49 474.521L1091.51 474.521C1090.46 474.521 1089.6 475.374 1089.6 476.427L1089.6 479.604C1089.6 482.228 1090.77 484.717 1092.78 486.403L1092.78 488.528C1092.78 489.044 1092.47 489.51 1091.99 489.707ZM1090.88 479.604 1090.88 476.427C1090.88 476.076 1091.16 475.792 1091.51 475.792L1105.49 475.792C1105.84 475.792 1106.12 476.076 1106.12 476.427L1106.12 479.604C1106.12 483.815 1102.71 487.229 1098.5 487.229 1094.29 487.229 1090.88 483.815 1090.88 479.604ZM1098.5 492.312C1096.28 492.364 1094.07 491.937 1092.03 491.062L1092.47 490.88C1093.43 490.491 1094.05 489.562 1094.05 488.53L1094.05 487.293C1096.8 488.899 1100.2 488.901 1102.95 487.297L1102.95 488.53C1102.95 489.561 1103.57 490.491 1104.52 490.881L1104.97 491.063C1102.93 491.938 1100.72 492.364 1098.5 492.312Z" fill="#7030A0"></path><path d="M1112.48 499.645C1112.48 498.399 1111.46 497.392 1110.22 497.396 1110.22 497.396 1110.21 497.396 1110.21 497.396L1086.77 497.396C1085.53 497.396 1084.52 498.403 1084.52 499.645L1084.52 514.037 1080.07 514.037 1080.07 515.482C1080.08 516.722 1081.09 517.724 1082.32 517.729L1114.68 517.729C1115.92 517.719 1116.92 516.717 1116.93 515.48L1116.93 514.037 1112.48 514.037ZM1115.66 515.308 1115.66 515.477C1115.65 516.016 1115.22 516.452 1114.68 516.458L1082.33 516.458C1081.79 516.457 1081.35 516.02 1081.34 515.48L1081.34 515.308 1085.79 515.308 1085.79 499.645C1085.79 499.104 1086.23 498.666 1086.77 498.667L1110.23 498.667C1110.77 498.669 1111.21 499.106 1111.21 499.645L1111.21 515.308Z" fill="#7030A0"></path><path d="M1096.41 510.854 1097.58 511.343 1100.56 504.15 1099.39 503.661 1096.41 510.854Z" fill="#7030A0"></path><path d="M1094.32 503.769 1090.75 507.334 1094.32 510.898 1095.21 510.003 1092.55 507.334 1095.21 504.665 1094.32 503.769Z" fill="#7030A0"></path><path d="M1101.77 504.665 1104.43 507.334 1101.77 510.003 1102.67 510.898 1106.23 507.334 1102.67 503.769 1101.77 504.665Z" fill="#7030A0"></path></g></svg>