<svg xmlns="http://www.w3.org/2000/svg" xmlns:xlink="http://www.w3.org/1999/xlink" width="48" height="48" xml:space="preserve" overflow="hidden"><g transform="translate(-698 -487)"><path d="M725.315 532.132 724.315 532.132 724.315 526.938C724.315 526.751 724.42 526.579 724.586 526.494 725.079 526.24 725.927 525.27 726.062 521.634 726.064 521.555 726.086 521.477 726.125 521.408L728.055 517.961C728.103 517.859 728.114 517.743 728.084 517.634 728.058 517.537 727.991 517.455 727.9 517.411 727.706 517.293 727.453 517.354 727.334 517.548 727.333 517.55 727.331 517.553 727.33 517.556L725.48 520.841C725.344 521.081 725.04 521.166 724.799 521.031 724.603 520.92 724.505 520.691 724.56 520.473L725.801 515.555C725.833 515.448 725.818 515.331 725.758 515.236 725.702 515.147 725.611 515.085 725.507 515.066 725.39 515.026 725.262 515.039 725.155 515.101 725.065 515.157 725.003 515.249 724.985 515.353L723.921 519.614C723.854 519.881 723.583 520.044 723.315 519.977 723.092 519.921 722.936 519.721 722.936 519.492L722.936 514.911C722.939 514.687 722.769 514.498 722.546 514.477 722.315 514.462 722.115 514.636 722.099 514.868 722.098 514.877 722.098 514.886 722.098 514.896L722.098 519.814C722.097 520.09 721.873 520.313 721.597 520.313 721.365 520.312 721.164 520.153 721.111 519.927L720.055 515.376C720.003 515.15 719.778 515.008 719.551 515.059 719.325 515.111 719.183 515.336 719.234 515.562 719.236 515.571 719.239 515.579 719.241 515.588L720.522 521.032C720.534 521.081 720.538 521.132 720.534 521.182 720.477 521.832 720.365 522.476 720.199 523.106 720.132 523.374 719.86 523.537 719.593 523.47 719.495 523.446 719.407 523.392 719.34 523.317 719.305 523.287 719.274 523.252 719.249 523.213 718.571 522.114 717.539 521.28 716.322 520.848 716.232 520.818 716.134 520.827 716.052 520.873 715.965 520.925 715.901 521.009 715.873 521.106 715.823 521.294 715.934 521.487 716.121 521.538 716.126 521.539 716.131 521.54 716.135 521.541 716.88 521.712 717.447 522.584 718.102 523.594L718.157 523.678C718.877 524.803 719.749 526.06 721.017 526.779 721.174 526.868 721.271 527.034 721.271 527.214L721.271 532.132 720.271 532.132 720.271 527.497C719.058 526.634 718.05 525.515 717.317 524.22L717.264 524.138C716.794 523.415 716.262 522.596 715.879 522.507 715.156 522.323 714.719 521.588 714.903 520.864 714.907 520.849 714.911 520.834 714.915 520.819 715.016 520.477 715.244 520.186 715.552 520.007 715.868 519.823 716.246 519.78 716.595 519.887 717.709 520.245 718.698 520.915 719.443 521.817 719.445 521.819 719.448 521.819 719.45 521.817 719.451 521.817 719.451 521.816 719.452 521.815 719.485 521.611 719.513 521.398 719.531 521.186L718.262 515.792C718.084 515.028 718.559 514.265 719.322 514.087 720.086 513.909 720.849 514.383 721.027 515.147 721.029 515.156 721.031 515.165 721.033 515.174L721.089 515.411C721.094 515.434 721.098 515.433 721.098 515.41L721.098 514.926C721.092 514.151 721.701 513.511 722.474 513.477 723.259 513.454 723.913 514.072 723.936 514.856 723.936 514.869 723.937 514.883 723.937 514.896L723.937 515.389C723.937 515.411 723.941 515.411 723.946 515.39L724.008 515.142C724.082 514.774 724.304 514.453 724.622 514.255 724.951 514.048 725.352 513.989 725.728 514.091 726.091 514.166 726.409 514.387 726.604 514.703 726.811 515.032 726.87 515.433 726.768 515.808L726.452 517.059C726.448 517.076 726.452 517.078 726.461 517.063 726.478 517.038 726.492 517.013 726.503 516.986 726.901 516.373 727.704 516.169 728.347 516.517 728.69 516.686 728.945 516.994 729.047 517.362 729.145 517.719 729.106 518.099 728.938 518.429L727.056 521.792C726.936 524.684 726.365 526.465 725.315 527.217Z" fill="#FFC000"></path><path d="M701.666 521.076 701.194 520.195 705.744 517.759C705.91 517.67 706.112 517.682 706.266 517.79 707.036 518.328 708.826 517.963 711.178 516.787 711.25 516.752 711.328 516.734 711.408 516.734L715.406 516.78C715.637 516.779 715.824 516.589 715.822 516.358 715.82 516.126 715.631 515.94 715.4 515.942L711.671 515.896C711.395 515.892 711.174 515.666 711.178 515.39 711.18 515.163 711.335 514.967 711.554 514.911L716.425 513.67C716.533 513.641 716.625 513.569 716.68 513.472 716.728 513.388 716.74 513.288 716.713 513.195 716.686 513.079 716.612 512.98 716.509 512.92 716.425 512.872 716.325 512.86 716.232 512.887L711.988 513.995C711.721 514.065 711.448 513.905 711.378 513.637 711.32 513.415 711.421 513.182 711.622 513.072L715.666 510.866C715.868 510.758 715.944 510.506 715.836 510.304 715.728 510.101 715.476 510.025 715.273 510.134 715.268 510.137 715.262 510.14 715.256 510.143L710.947 512.436C710.703 512.565 710.401 512.473 710.271 512.229 710.163 512.024 710.209 511.773 710.382 511.62L713.875 508.54C713.956 508.466 714.005 508.362 714.011 508.252 714.021 508.146 713.989 508.04 713.92 507.957 713.846 507.877 713.744 507.828 713.634 507.822 713.528 507.812 713.422 507.845 713.339 507.912L709.111 511.59C709.075 511.621 709.035 511.647 708.992 511.667 708.381 511.953 707.733 512.152 707.066 512.258 706.794 512.301 706.538 512.114 706.496 511.841 706.492 511.816 706.49 511.79 706.49 511.764 706.49 511.62 706.547 511.482 706.649 511.379 707.25 510.284 707.473 509.021 707.284 507.786 707.265 507.697 707.208 507.62 707.128 507.576 707.033 507.521 706.921 507.501 706.813 507.52 706.623 507.59 706.515 507.792 706.562 507.989 706.737 508.75 706.254 509.672 705.695 510.741 704.989 512.052 704.361 513.331 704.32 514.766 704.315 514.944 704.215 515.106 704.058 515.191L699.738 517.535 699.262 516.656 703.335 514.446C703.53 512.972 704.03 511.555 704.804 510.286 705.217 509.497 705.68 508.613 705.584 508.199 705.42 507.457 705.878 506.72 706.617 506.539 706.966 506.472 707.328 506.534 707.635 506.714 707.958 506.897 708.187 507.211 708.262 507.575 708.47 508.734 708.344 509.928 707.901 511.019 707.9 511.021 707.901 511.024 707.904 511.025 707.905 511.025 707.906 511.025 707.907 511.025 708.108 510.957 708.309 510.878 708.509 510.787L712.682 507.158C713.274 506.658 714.157 506.72 714.673 507.298 714.917 507.582 715.037 507.951 715.008 508.324 714.982 508.696 714.812 509.043 714.534 509.29L714.269 509.525C714.252 509.54 714.254 509.543 714.274 509.533L714.797 509.254C715.487 508.887 716.344 509.147 716.712 509.837 717.08 510.527 716.819 511.384 716.129 511.752L715.711 511.98C715.692 511.99 715.694 511.994 715.714 511.989 715.714 511.989 715.772 511.974 715.786 511.97 716.187 511.873 716.608 511.9 716.994 512.045 717.33 512.232 717.576 512.548 717.674 512.92 717.776 513.267 717.732 513.641 717.554 513.956 717.367 514.292 717.052 514.538 716.681 514.636L715.506 514.936C715.49 514.94 715.491 514.944 715.507 514.945 716.289 515.001 716.877 515.681 716.82 516.463 716.767 517.207 716.146 517.782 715.4 517.78L711.517 517.735C708.98 518.988 707.116 519.335 705.969 518.772Z" fill="#FFC000"></path><path d="M741.191 523.411 738.075 520.034C736.478 520.328 734.932 519.954 733.676 519.651 733.071 519.493 731.831 519.17 731.459 519.374 731.141 519.551 730.762 519.585 730.418 519.467 730.083 519.354 729.803 519.119 729.634 518.81 729.455 518.491 729.42 518.111 729.539 517.766 729.651 517.431 729.886 517.151 730.195 516.981 731.253 516.478 732.433 516.289 733.595 516.437 733.598 516.437 733.6 516.435 733.6 516.432 733.6 516.432 733.6 516.431 733.599 516.43 733.482 516.252 733.356 516.075 733.22 515.905L728.64 512.775C728.004 512.323 727.843 511.447 728.276 510.798 728.699 510.164 729.356 509.827 730.006 510.261L730.482 510.583C730.501 510.595 730.504 510.592 730.488 510.575L730.117 510.173C729.586 509.63 729.597 508.759 730.14 508.228 730.152 508.216 730.164 508.205 730.177 508.194 730.444 507.919 730.817 507.774 731.199 507.795 731.567 507.817 731.913 507.976 732.17 508.24L732.559 508.656C732.573 508.672 732.577 508.669 732.567 508.651L732.39 508.328C732.215 507.994 732.173 507.608 732.272 507.245 732.374 506.876 732.629 506.569 732.972 506.399 733.302 506.231 733.682 506.193 734.038 506.291 734.407 506.393 734.714 506.647 734.883 506.991L735.505 508.117C735.513 508.132 735.517 508.13 735.514 508.113 735.514 508.113 735.51 508.098 735.509 508.091 735.343 507.325 735.829 506.569 736.595 506.403 737.346 506.241 738.089 506.704 738.273 507.45L739.167 511.204C740.281 512.46 741.923 514.657 741.564 516.367L744.869 519.976 744.131 520.651 740.639 516.836C740.512 516.698 740.473 516.501 740.539 516.325 740.946 515.228 739.669 513.256 738.339 511.777 738.282 511.715 738.243 511.64 738.224 511.559L737.305 507.698C737.246 507.466 737.011 507.325 736.779 507.384 736.779 507.384 736.778 507.384 736.777 507.384 736.557 507.452 736.43 507.683 736.491 507.906L737.358 511.51C737.423 511.778 737.259 512.049 736.99 512.114 736.771 512.168 736.542 512.067 736.434 511.869L733.998 507.456C733.955 507.357 733.87 507.282 733.766 507.253 733.649 507.223 733.526 507.238 733.419 507.294 733.328 507.337 733.26 507.419 733.234 507.517 733.204 507.633 733.219 507.757 733.275 507.864L735.38 511.708C735.513 511.951 735.424 512.255 735.181 512.387 734.981 512.496 734.732 512.456 734.576 512.289L731.451 508.934C731.37 508.853 731.263 508.803 731.148 508.794 731.049 508.79 730.953 508.829 730.884 508.901 730.712 509.039 730.684 509.289 730.821 509.461 730.827 509.468 730.832 509.475 730.838 509.481L734.206 513.126C734.393 513.33 734.38 513.646 734.177 513.833 734.007 513.99 733.75 514.009 733.558 513.879L729.698 511.259C729.507 511.124 729.242 511.169 729.106 511.36 728.972 511.548 729.014 511.809 729.199 511.947L733.845 515.121C733.884 515.148 733.92 515.181 733.95 515.218 734.354 515.73 734.71 516.279 735.013 516.857 735.145 517.1 735.056 517.403 734.814 517.536 734.74 517.576 734.658 517.597 734.574 517.597 734.521 517.597 734.467 517.592 734.414 517.584 733.174 517.244 731.854 517.341 730.677 517.858 730.588 517.907 730.521 517.987 730.488 518.082 730.459 518.162 730.467 518.25 730.508 518.325 730.557 518.415 730.637 518.484 730.734 518.518 730.814 518.547 730.903 518.539 730.977 518.498 731.647 518.133 732.705 518.365 733.919 518.682 735.14 518.976 736.67 519.345 738.136 519 738.311 518.959 738.496 519.016 738.618 519.148L741.927 522.733Z" fill="#FFC000"></path><path d="M729.108 507.59C728.876 507.604 728.645 507.549 728.444 507.431 728.114 507.259 727.87 506.958 727.771 506.599 727.672 506.242 727.711 505.862 727.879 505.533L728.032 505.246C728.043 505.225 728.04 505.222 728.024 505.241L727.646 505.672C727.388 505.996 726.993 506.179 726.58 506.165 726.253 506.158 725.937 506.042 725.683 505.835 725.39 505.585 725.209 505.229 725.18 504.845 725.151 504.472 725.271 504.103 725.515 503.819L725.823 503.468C725.839 503.451 725.836 503.448 725.817 503.461L725.655 503.572C725.429 503.771 725.135 503.876 724.834 503.867 724.367 503.864 723.933 503.624 723.683 503.23 723.249 502.579 723.413 501.701 724.051 501.25L725.043 500.567C725.055 500.558 725.053 500.555 725.038 500.558 724.912 500.591 724.781 500.607 724.65 500.603 724.025 500.589 723.474 500.19 723.267 499.6 722.994 498.861 723.364 498.04 724.097 497.755L727.771 496.455C729.76 494.374 731.352 493.417 732.637 493.543L735.854 489.847 736.607 490.503 733.207 494.41C733.083 494.551 732.891 494.612 732.709 494.567 732.174 494.433 730.904 494.6 728.414 497.229 728.359 497.287 728.292 497.331 728.217 497.357L724.449 498.69C724.231 498.777 724.121 499.022 724.201 499.243 724.263 499.444 724.441 499.587 724.65 499.603 724.706 499.607 724.761 499.6 724.813 499.583L728.297 498.345C728.557 498.252 728.843 498.388 728.936 498.648 729.012 498.862 728.935 499.1 728.748 499.228L724.612 502.078C724.428 502.22 724.385 502.482 724.515 502.676 724.581 502.79 724.702 502.862 724.834 502.866 724.887 502.871 724.94 502.858 724.985 502.829 725.007 502.808 725.03 502.789 725.055 502.772L728.639 500.29C728.866 500.133 729.178 500.19 729.335 500.417 729.465 500.605 729.45 500.858 729.299 501.031L726.266 504.478C726.199 504.56 726.167 504.666 726.177 504.772 726.183 504.882 726.232 504.984 726.312 505.059 726.387 505.123 726.481 505.161 726.58 505.165 726.696 505.177 726.81 505.126 726.879 505.031L730.156 501.29C730.338 501.082 730.654 501.061 730.862 501.242 731.037 501.396 731.084 501.65 730.974 501.855L728.768 505.992C728.716 506.096 728.703 506.215 728.733 506.328 728.759 506.426 728.827 506.507 728.918 506.551 728.937 506.56 728.955 506.57 728.972 506.582 729.017 506.589 729.063 506.592 729.108 506.59 729.275 506.581 729.425 506.484 729.501 506.336L732.16 501.384C732.183 501.341 732.212 501.301 732.247 501.267 732.718 500.804 733.24 500.396 733.802 500.049 734.035 499.901 734.344 499.969 734.493 500.202 734.544 500.283 734.571 500.376 734.571 500.471 734.571 500.492 734.57 500.56 734.567 500.581 734.36 501.852 734.59 503.156 735.219 504.28 735.329 504.446 735.553 504.491 735.719 504.381 735.884 504.271 735.93 504.047 735.82 503.882 735.818 503.879 735.816 503.876 735.814 503.874 735.399 503.221 735.528 502.193 735.677 501.004L735.688 500.914C735.881 499.519 736.029 498.047 735.572 496.676 735.516 496.508 735.553 496.322 735.67 496.189L738.887 492.512 739.64 493.17 736.606 496.637C736.938 498.085 736.963 499.586 736.68 501.044L736.67 501.128C736.56 502 736.436 502.988 736.653 503.328 737.068 503.954 736.897 504.798 736.271 505.214 735.648 505.628 734.807 505.46 734.39 504.839 733.78 503.831 733.474 502.667 733.509 501.489 733.509 501.486 733.506 501.484 733.504 501.485 733.503 501.485 733.502 501.485 733.501 501.486 733.322 501.629 733.158 501.773 733.005 501.923L730.375 506.82C730.122 507.286 729.638 507.579 729.108 507.59Z" fill="#FFC000"></path><path d="M717.209 506.808C716.688 506.829 716.199 506.554 715.948 506.097L715.3 504.935C715.291 504.92 715.287 504.922 715.291 504.938L715.306 504.996C715.466 505.734 715.031 506.471 714.307 506.686 714.179 506.742 714.04 506.769 713.9 506.762 713.248 506.769 712.681 506.318 712.539 505.681L711.61 501.964C711.084 501.411 708.745 498.814 709.284 496.822L705.954 493.275 706.683 492.591 710.221 496.359C710.36 496.508 710.396 496.725 710.311 496.909 709.776 498.081 711.319 500.26 712.416 501.358 712.48 501.422 712.526 501.503 712.548 501.591L713.513 505.452C713.551 505.635 713.714 505.765 713.901 505.762 713.933 505.75 713.966 505.74 714 505.734 714.236 505.68 714.384 505.444 714.33 505.208 714.329 505.206 714.329 505.204 714.328 505.203L713.46 501.599C713.395 501.33 713.561 501.06 713.829 500.996 714.047 500.943 714.274 501.042 714.383 501.238L716.818 505.605C716.892 505.749 717.049 505.831 717.209 505.808 717.273 505.805 717.335 505.787 717.391 505.754 717.408 505.743 717.426 505.732 717.445 505.723 717.533 505.677 717.598 505.596 717.625 505.5 717.66 505.392 717.651 505.274 717.599 505.172L715.485 501.357C715.351 501.115 715.438 500.811 715.68 500.677 715.881 500.566 716.132 500.605 716.288 500.773L719.413 504.129C719.596 504.284 719.863 504.287 720.049 504.137 720.198 503.973 720.198 503.722 720.049 503.558L716.706 499.985C716.517 499.783 716.528 499.467 716.73 499.278 716.9 499.12 717.156 499.099 717.35 499.228L721.256 501.848C721.325 501.886 721.404 501.904 721.483 501.901 721.628 501.898 721.763 501.828 721.848 501.71 721.977 501.519 721.937 501.261 721.757 501.117L717.07 497.991C717.029 497.964 716.992 497.93 716.96 497.892 716.556 497.379 716.2 496.83 715.897 496.252 715.765 496.009 715.854 495.705 716.096 495.573 716.17 495.533 716.252 495.512 716.336 495.512 716.39 495.512 716.443 495.516 716.496 495.525 717.736 495.864 719.056 495.767 720.233 495.251 720.311 495.208 720.369 495.136 720.392 495.051 720.416 494.961 720.403 494.865 720.357 494.784 720.314 494.704 720.241 494.645 720.154 494.621 720.064 494.597 719.968 494.61 719.887 494.656 719.229 495.016 718.216 494.796 717.044 494.541L716.965 494.524C715.728 494.226 714.2 493.857 712.742 494.243 712.564 494.29 712.375 494.236 712.249 494.102L708.894 490.517 709.625 489.833 712.781 493.207C714.381 492.872 715.929 493.246 717.188 493.55L717.256 493.564C718.067 493.741 719.076 493.961 719.405 493.781 719.715 493.607 720.08 493.563 720.422 493.657 720.767 493.753 721.059 493.985 721.23 494.299 721.406 494.609 721.451 494.976 721.355 495.319 721.26 495.664 721.029 495.956 720.714 496.128 719.659 496.637 718.479 496.827 717.317 496.674 717.314 496.674 717.312 496.676 717.312 496.679 717.312 496.68 717.312 496.681 717.313 496.681 717.429 496.857 717.553 497.033 717.688 497.201L722.312 500.284C722.962 500.74 723.12 501.638 722.664 502.288 722.394 502.673 721.953 502.902 721.483 502.901 721.206 502.905 720.934 502.828 720.7 502.679 720.7 502.679 720.589 502.606 720.457 502.516 720.438 502.503 720.435 502.506 720.451 502.524L720.791 502.887C721.306 503.456 721.281 504.331 720.733 504.869 720.717 504.886 720.699 504.901 720.68 504.915 720.409 505.124 720.079 505.239 719.737 505.245 719.346 505.252 718.97 505.099 718.693 504.823L718.363 504.468C718.349 504.452 718.345 504.455 718.356 504.474L718.474 504.687C718.658 505.027 718.696 505.427 718.58 505.795 718.477 506.142 718.239 506.433 717.919 506.604 717.705 506.735 717.46 506.806 717.209 506.808Z" fill="#FFC000"></path></g></svg>