<svg xmlns="http://www.w3.org/2000/svg" xmlns:xlink="http://www.w3.org/1999/xlink" width="64" height="64" xml:space="preserve" overflow="hidden"><g transform="translate(-693 -376)"><path d="M728.915 402.42 725 390.67 721.082 402.42 709.333 402.42 718.34 410.253 714.815 422.003 725 414.953 735.183 422.003 731.657 410.253 740.667 402.42ZM730.382 410.637 732.812 418.74 725.759 413.857 725 413.333 724.241 413.859 717.186 418.741 719.617 410.637 719.865 409.812 719.215 409.247 712.898 403.753 722.043 403.753 722.347 402.842 725 394.887 727.651 402.841 727.955 403.753 737.101 403.753 730.783 409.247 730.133 409.812Z" fill="#7030A0"></path><path d="M724.986 382.667C711.003 382.667 699.667 394.003 699.667 407.986 699.667 421.969 711.003 433.305 724.986 433.305 738.969 433.305 750.305 421.969 750.305 407.986 750.312 394.009 738.986 382.673 725.009 382.667 725.001 382.667 724.994 382.667 724.986 382.667ZM724.986 431.972C711.739 431.972 701 421.233 701 407.986 701 394.739 711.739 384 724.986 384 738.233 384 748.972 394.739 748.972 407.986 748.957 421.227 738.227 431.957 724.986 431.972Z" fill="#7030A0"></path></g></svg>