<svg xmlns="http://www.w3.org/2000/svg" xmlns:xlink="http://www.w3.org/1999/xlink" width="62" height="61" xml:space="preserve" overflow="hidden"><g transform="translate(-1005 -381)"><path d="M19.825 32.724C17.4104 33.6771 15.1865 34.9479 13.1531 36.5365 11.7552 37.6802 10.8656 39.3958 10.8021 41.2385L9.72188 50.6427C9.53125 52.0406 10.1667 53.4385 11.3104 54.201 12.4542 54.9635 13.6615 55.5354 14.9323 56.0438L15.5042 56.0438 15.5042 53.5656C14.551 53.1844 13.5979 52.676 12.7083 52.1042 12.3271 51.85 12.1365 51.4052 12.2 50.9604L13.3438 41.4292 13.3438 41.3021C13.4073 40.1583 13.9156 39.1417 14.8052 38.4427 16.5208 36.9813 18.999 35.6469 22.4302 34.376 24.3365 35.5198 27.2594 36.2188 30.5 36.2188 33.7406 36.2188 36.6635 35.5198 38.5698 34.376 42.0646 35.6469 44.4792 36.9813 46.1948 38.4427 47.0844 39.1417 47.5927 40.2219 47.6562 41.3021L48.8 50.8969C48.8635 51.3417 48.6729 51.7865 48.2917 52.0406L48.2917 52.0406C47.4021 52.6125 46.5125 53.1208 45.4958 53.5021L45.4958 55.9802 46.0677 55.9802C47.3385 55.5354 48.5458 54.9 49.6896 54.1375L49.6896 54.1375C50.8333 53.3115 51.4688 51.9771 51.2781 50.5792L50.1979 41.2385C50.1344 39.3958 49.2448 37.6802 47.8469 36.5365 45.8135 34.9479 43.5896 33.6135 41.175 32.724 41.175 29.4833 41.3021 20.5875 41.3021 16.9656 41.3021 15.949 41.175 14.9323 40.9208 13.9156 40.0948 10.8656 37.9979 8.32396 35.2021 6.8625 34.9479 6.73542 34.5667 6.73542 34.376 6.92604L33.8042 7.37083 33.1688 6.48125C32.9781 6.16354 32.6604 5.97292 32.3427 5.90938 31.7073 5.78229 31.1354 5.71875 30.5 5.71875 27.9583 5.71875 25.4167 6.67188 23.5104 8.32396 21.0958 10.4844 19.7615 13.5344 19.825 16.775L19.825 32.724ZM23.0021 22.3667 23.4469 17.1562 37.4896 17.1562 37.9344 22.3667C37.1719 26.4969 33.2323 29.2292 29.0385 28.4667 25.9885 27.8948 23.574 25.4802 23.0021 22.3667ZM25.5438 32.9781C26.2427 32.4062 26.6875 31.4531 26.6875 30.5L26.6875 30.3729C29.1021 31.3896 31.8979 31.3896 34.3125 30.3729L34.3125 30.5C34.3125 31.4531 34.7573 32.3427 35.4562 32.9781 33.8677 33.4865 32.1521 33.6771 30.5 33.6771 28.8479 33.6771 27.1323 33.4865 25.5438 32.9781Z" fill="#7030A0" transform="matrix(1.01639 0 0 1 1005 381)"></path><path d="M44.225 41.4927C44.225 40.6031 43.526 39.9042 42.6365 39.9042L42.6365 39.9042 18.4271 39.9042C17.5375 39.9042 16.8385 40.6031 16.8385 41.4927L16.8385 41.4927 16.8385 57.3146 12.0094 57.3146 12.0094 58.1406C12.0094 59.0302 12.7083 59.7292 13.5979 59.7292L47.4656 59.7292C48.3552 59.7292 49.0542 59.0302 49.0542 58.1406L49.0542 57.3146 44.225 57.3146 44.225 41.4927ZM27.1958 51.9771 26.3063 52.8667 22.7479 49.3083 26.3063 45.75 27.1958 46.6396 24.5271 49.3083 27.1958 51.9771ZM29.6104 53.3115 28.4667 52.8031 31.4531 45.6229 32.5969 46.1313 29.6104 53.3115ZM34.6937 52.9302 33.8042 52.0406 36.4729 49.3719 33.8042 46.7031 34.6937 45.8135 38.2521 49.3719 34.6937 52.9302Z" fill="#7030A0" transform="matrix(1.01639 0 0 1 1005 381)"></path></g></svg>