<svg xmlns="http://www.w3.org/2000/svg" xmlns:xlink="http://www.w3.org/1999/xlink" width="61" height="62" xml:space="preserve" overflow="hidden"><g transform="translate(-939 -457)"><path d="M39.5229 34.6937C42.1917 35.6469 44.7333 36.7271 46.8302 38.4427 47.7198 39.1417 48.2281 40.1583 48.2281 41.3021L49.3719 51.151C49.4354 51.5958 49.2448 52.0406 48.8635 52.2948L48.8635 52.2948C47.7833 52.9938 46.6396 53.5656 45.4323 53.9469L45.4323 55.9802 47.1479 55.9802C48.2281 55.5354 49.3083 55.0271 50.2615 54.3917L50.2615 54.3917C51.4052 53.6292 52.0406 52.2313 51.85 50.8333L50.8333 41.2385C50.7698 39.3958 49.9438 37.6802 48.4823 36.5365 46.1313 34.5667 43.3354 33.3594 40.4125 32.3427L37.299 31.0719C37.0448 30.9448 36.9177 30.7542 36.9177 30.5L36.9177 28.975C39.3323 27.0688 40.7302 24.1458 40.7302 21.0323L40.7302 18.7448C41.1115 18.999 41.5563 19.0625 42.001 19.126L40.9208 15.949C40.7938 15.5042 40.6667 15.0594 40.6031 14.6146 40.0948 10.9927 37.9344 8.45104 34.9479 6.8625 34.6937 6.73542 34.376 6.73542 34.1219 6.92604L33.55 7.37083 32.9146 6.48125C32.724 6.22708 32.4698 5.97292 32.1521 5.90938 31.5802 5.78229 31.0083 5.71875 30.4365 5.71875 25.4167 5.71875 21.2229 9.65833 20.3333 14.8052L20.3333 15.25 20.3333 15.25 20.3333 16.3302C20.3333 17.7281 20.0792 19.0625 19.5073 20.3333L18.4271 22.875C18.4271 22.875 19.1896 22.6844 20.4604 22.3031 20.7781 24.9083 22.1125 27.2594 24.1458 28.8479L24.1458 30.4365C24.1458 30.6906 24.0188 30.9448 23.7646 31.0083L20.651 32.2792C17.7281 33.2958 14.9323 34.5031 12.5813 36.4729 11.1198 37.6167 10.2302 39.3323 10.1667 41.175L9.08646 50.8333C8.89583 52.2313 9.53125 53.6292 10.675 54.3917 11.6281 55.0271 12.7083 55.5354 13.7885 55.9802L15.5677 55.9802 15.5677 54.0104C14.3604 53.5656 13.2167 53.0573 12.1365 52.3583 11.7552 52.1042 11.5646 51.6594 11.6281 51.2146L12.7083 41.4292 12.7083 41.3021C12.7083 40.1583 13.2802 39.1417 14.1698 38.4427 16.2667 36.7271 18.8083 35.6469 21.4771 34.6937L22.4938 34.376C24.3365 35.5198 27.2594 36.2188 30.5 36.2188 33.7406 36.2188 36.6635 35.5198 38.5698 34.376L39.5229 34.6937ZM22.875 21.5406C27.1958 20.0792 33.4229 17.5375 36.2188 13.9792 36.7906 14.8688 37.426 15.6948 38.125 16.5208L38.125 20.9688C38.125 25.1625 34.6937 28.5938 30.5 28.5938 26.4969 28.5938 23.1927 25.5438 22.875 21.5406ZM25.4167 32.9781C26.1792 32.4062 26.6875 31.4531 26.6875 30.4365L26.6875 30.3729C29.1021 31.3896 31.8979 31.3896 34.3125 30.3729L34.3125 30.4365C34.3125 31.3896 34.7573 32.3427 35.5198 32.9781 33.8677 33.4865 32.1521 33.7406 30.4365 33.6771 28.7844 33.6771 27.0688 33.4229 25.4167 32.9781Z" fill="#7030A0" transform="matrix(1 0 0 1.01639 939 457)"></path><path d="M44.225 41.4927C44.225 40.6031 43.526 39.9042 42.6365 39.9042L42.6365 39.9042 18.4271 39.9042C17.5375 39.9042 16.8385 40.6031 16.8385 41.4927L16.8385 41.4927 16.8385 57.3146 12.0094 57.3146 12.0094 58.1406C12.0094 59.0302 12.7083 59.7292 13.5979 59.7292L47.4656 59.7292C48.3552 59.7292 49.0542 59.0302 49.0542 58.1406L49.0542 57.3146 44.225 57.3146 44.225 41.4927ZM27.1958 51.9771 26.3063 52.8667 22.7479 49.3083 26.3063 45.75 27.1958 46.6396 24.5271 49.3083 27.1958 51.9771ZM29.6104 53.3115 28.4667 52.8031 31.4531 45.6229 32.5969 46.1313 29.6104 53.3115ZM34.6937 52.9302 33.8042 52.0406 36.4729 49.3719 33.8042 46.7031 34.6937 45.8135 38.2521 49.3719 34.6937 52.9302Z" fill="#7030A0" transform="matrix(1 0 0 1.01639 939 457)"></path></g></svg>