<svg
  xmlns="http://www.w3.org/2000/svg"
  viewBox="0 0 144 144"
  className="w-12 h-12"
  fill="none"
>
  <g>
    <path
      fill="currentColor"
      d="M 54.800781 102.210938 C 54.800781 105.972656 57.851562 109.023438 61.613281 109.023438 C 65.375 109.027344 68.425781 105.980469 68.425781 102.214844 C 68.425781 98.453125 65.378906 95.40625 61.617188 95.402344 C 61.613281 95.402344 61.613281 95.402344 61.613281 95.402344 C 57.851562 95.40625 54.804688 98.453125 54.800781 102.210938 Z M 65.421875 102.210938 C 65.425781 104.316406 63.71875 106.027344 61.613281 106.027344 C 59.507812 106.027344 57.800781 104.320312 57.800781 102.214844 C 57.800781 100.109375 59.507812 98.402344 61.609375 98.402344 C 61.613281 98.402344 61.613281 98.402344 61.613281 98.402344 C 63.71875 98.40625 65.421875 100.109375 65.421875 102.210938 Z M 73.660156 114.980469 C 71.703125 113.472656 69.460938 112.371094 67.074219 111.738281 C 65.269531 111.183594 63.394531 110.902344 61.507812 110.898438 C 59.625 110.925781 57.75 111.210938 55.941406 111.738281 C 53.578125 112.4375 51.351562 113.535156 49.355469 114.980469 C 48.523438 115.636719 48.027344 116.632812 48.007812 117.695312 L 48.007812 124.5 L 75.007812 124.5 L 75.007812 117.691406 C 74.984375 116.628906 74.488281 115.636719 73.660156 114.980469 Z M 72.011719 121.5 L 51 121.5 L 51 117.75 C 51.003906 117.597656 51.066406 117.453125 51.179688 117.351562 C 52.882812 116.132812 54.773438 115.203125 56.777344 114.613281 C 58.320312 114.160156 59.914062 113.917969 61.523438 113.890625 C 63.105469 113.898438 64.675781 114.136719 66.1875 114.597656 L 66.300781 114.632812 C 68.296875 115.152344 70.164062 116.070312 71.792969 117.324219 C 71.910156 117.414062 71.984375 117.542969 72.003906 117.6875 Z M 84.601562 102.210938 C 84.601562 105.972656 87.648438 109.023438 91.410156 109.023438 C 95.171875 109.027344 98.222656 105.980469 98.222656 102.214844 C 98.222656 98.453125 95.175781 95.40625 91.414062 95.402344 C 87.652344 95.40625 84.601562 98.453125 84.601562 102.210938 Z M 95.222656 102.210938 C 95.222656 104.316406 93.519531 106.027344 91.414062 106.027344 C 89.308594 106.027344 87.601562 104.320312 87.597656 102.214844 C 87.597656 100.109375 89.304688 98.402344 91.410156 98.402344 C 91.410156 98.402344 91.410156 98.402344 91.414062 98.402344 C 93.511719 98.410156 95.214844 100.113281 95.21875 102.210938 Z M 103.664062 114.980469 C 101.707031 113.472656 99.464844 112.371094 97.078125 111.738281 C 95.277344 111.183594 93.398438 110.902344 91.511719 110.898438 C 89.628906 110.925781 87.753906 111.210938 85.949219 111.738281 C 83.585938 112.4375 81.359375 113.535156 79.363281 114.980469 C 78.527344 115.636719 78.03125 116.632812 78.011719 117.695312 L 78.011719 124.5 L 105.011719 124.5 L 105.011719 117.691406 C 104.988281 116.628906 104.496094 115.636719 103.664062 114.980469 Z M 102.015625 121.5 L 81.011719 121.5 L 81.011719 117.75 C 81.015625 117.597656 81.082031 117.453125 81.195312 117.351562 C 82.894531 116.132812 84.785156 115.203125 86.792969 114.613281 C 88.335938 114.160156 89.929688 113.917969 91.535156 113.890625 C 93.117188 113.898438 94.691406 114.136719 96.203125 114.597656 L 96.320312 114.632812 C 98.308594 115.152344 100.175781 116.070312 101.808594 117.324219 C 101.925781 117.414062 102 117.542969 102.019531 117.6875 Z M 114.597656 102.210938 C 114.597656 105.972656 117.648438 109.023438 121.410156 109.023438 C 125.171875 109.027344 128.222656 105.980469 128.222656 102.214844 C 128.222656 98.453125 125.175781 95.40625 121.410156 95.402344 C 117.652344 95.40625 114.601562 98.453125 114.597656 102.210938 Z M 125.21875 102.210938 C 125.222656 104.316406 123.515625 106.027344 121.410156 106.027344 C 119.304688 106.027344 117.597656 104.320312 117.597656 102.214844 C 117.597656 100.109375 119.304688 98.402344 121.410156 98.402344 C 123.515625 98.40625 125.21875 100.109375 125.21875 102.210938 Z M 133.667969 114.980469 C 131.710938 113.472656 129.472656 112.371094 127.082031 111.738281 C 125.277344 111.183594 123.402344 110.902344 121.515625 110.898438 C 119.632812 110.925781 117.757812 111.210938 115.949219 111.738281 C 113.585938 112.4375 111.359375 113.535156 109.367188 114.980469 C 108.53125 115.636719 108.035156 116.632812 108.015625 117.695312 L 108.015625 124.5 L 135.015625 124.5 L 135.015625 117.691406 C 134.992188 116.628906 134.5 115.636719 133.667969 114.980469 Z M 132.019531 121.5 L 111.019531 121.5 L 111.019531 117.75 C 111.023438 117.597656 111.085938 117.453125 111.199219 117.351562 C 112.898438 116.132812 114.789062 115.203125 116.796875 114.613281 C 118.339844 114.160156 119.933594 113.917969 121.539062 113.890625 C 123.121094 113.898438 124.695312 114.136719 126.207031 114.597656 L 126.320312 114.632812 C 128.3125 115.152344 130.179688 116.070312 131.8125 117.324219 C 131.929688 117.414062 132.003906 117.542969 132.023438 117.6875 Z M 36 19.5 C 36 17.84375 37.34375 16.5 39 16.5 L 115.5 16.5 C 117.15625 16.5 118.5 17.84375 118.5 19.5 L 118.5 70.5 C 118.5 72.15625 117.15625 73.5 115.5 73.5 L 64.746094 73.5 L 62.929688 76.5 L 115.5 76.5 C 118.8125 76.5 121.5 73.8125 121.5 70.5 L 121.5 19.5 C 121.5 16.1875 118.8125 13.5 115.5 13.5 L 39 13.5 C 35.6875 13.5 33 16.1875 33 19.5 L 33 25.550781 C 34.019531 25.621094 35.023438 25.804688 36 26.101562 Z"
    />
    <path
      fill="currentColor"
      d="M 50.851562 70.695312 C 51.425781 70.765625 51.992188 70.496094 52.300781 70.003906 L 58.738281 59.734375 C 59.441406 58.621094 60.914062 58.289062 62.027344 58.992188 C 62.066406 59.015625 62.105469 59.039062 62.140625 59.066406 C 63.175781 59.902344 63.394531 61.398438 62.636719 62.496094 L 54.78125 75.476562 C 53.980469 76.792969 52.289062 77.257812 50.925781 76.535156 C 50.195312 76.144531 49.285156 76.421875 48.898438 77.152344 C 48.507812 77.886719 48.785156 78.796875 49.515625 79.183594 C 52.285156 80.65625 55.71875 79.710938 57.34375 77.03125 L 65.1875 64.074219 C 66.417969 62.175781 66.378906 59.726562 65.089844 57.867188 L 84.113281 38.488281 C 84.683594 37.886719 84.660156 36.9375 84.0625 36.367188 C 83.476562 35.804688 82.550781 35.816406 81.972656 36.386719 L 62.710938 56.007812 C 61.757812 55.625 60.71875 55.53125 59.710938 55.722656 C 58.257812 56.011719 56.988281 56.886719 56.195312 58.132812 L 51.449219 65.707031 L 48.679688 57.324219 L 48.582031 57.09375 C 46.351562 51.972656 41.03125 51 32.015625 51 C 23 51 17.6875 51.972656 15.4375 57.109375 C 15.4375 57.109375 15.378906 57.234375 15.347656 57.320312 C 15.308594 57.421875 15.277344 57.527344 15.253906 57.636719 L 10.015625 86.261719 C 9.390625 88.925781 11.042969 91.589844 13.703125 92.214844 C 13.824219 92.242188 13.945312 92.265625 14.066406 92.285156 L 14.515625 92.355469 C 14.59375 92.367188 14.675781 92.375 14.753906 92.375 C 15.582031 92.347656 16.230469 91.65625 16.207031 90.828125 C 16.183594 90.121094 15.671875 89.527344 14.980469 89.398438 L 14.527344 89.328125 C 13.992188 89.246094 13.515625 88.941406 13.214844 88.492188 C 12.902344 88.015625 12.808594 87.429688 12.953125 86.882812 L 18.175781 58.34375 L 18.191406 58.300781 C 19.414062 55.507812 21.976562 54 32.015625 54 C 42.054688 54 44.617188 55.507812 45.828125 58.273438 L 49.605469 69.675781 C 49.789062 70.230469 50.273438 70.628906 50.851562 70.695312 Z"
    />
    <path
      fill="currentColor"
      d="M 42 65.128906 C 41.171875 65.128906 40.5 65.800781 40.5 66.628906 L 40.5 127.5 L 33.75 127.5 L 33.75 90.222656 L 30.75 90.222656 L 30.75 127.5 L 24 127.5 L 24 66.628906 C 24 65.800781 23.328125 65.128906 22.5 65.128906 C 21.671875 65.128906 21 65.800781 21 66.628906 L 21 130.5 L 43.5 130.5 L 43.5 66.628906 C 43.5 65.800781 42.828125 65.128906 42 65.128906 Z M 32.015625 48 C 36.988281 48 41.015625 43.96875 41.015625 39 C 41.015625 34.027344 36.988281 30 32.015625 30 C 27.046875 30 23.015625 34.027344 23.015625 39 C 23.023438 43.96875 27.046875 47.996094 32.015625 48 Z M 32.015625 33 C 35.328125 33 38.015625 35.6875 38.015625 39 C 38.015625 42.3125 35.328125 45 32.015625 45 C 28.703125 45 26.015625 42.3125 26.015625 39 C 26.015625 35.6875 28.703125 33 32.015625 33 Z"
    />
  </g>
</svg>