<?xml version="1.0" standalone="no"?>
<!DOCTYPE svg PUBLIC "-//W3C//DTD SVG 20010904//EN"
 "http://www.w3.org/TR/2001/REC-SVG-20010904/DTD/svg10.dtd">
<svg version="1.0" xmlns="http://www.w3.org/2000/svg"
 width="126.000000pt" height="96.000000pt" viewBox="0 0 126.000000 96.000000"
 preserveAspectRatio="xMidYMid meet">
<g transform="translate(0.000000,96.000000) scale(0.100000,-0.100000)"
fill="#000000" stroke="none">
<path d="M179 944 c-7 -9 -14 -21 -15 -28 -1 -6 -4 -22 -7 -35 -3 -19 -14 -27
-49 -38 -30 -8 -48 -20 -56 -37 -11 -26 -17 -524 -5 -512 7 7 33 -13 33 -26 0
-5 -4 -6 -10 -3 -19 12 -23 -45 -5 -65 11 -12 13 -20 7 -20 -7 0 -12 -7 -12
-16 0 -8 -4 -13 -9 -9 -6 3 -8 -12 -6 -36 4 -48 30 -82 56 -74 10 3 28 8 40
10 12 3 52 14 88 26 36 12 85 22 109 22 23 0 42 4 42 9 0 5 5 6 10 3 6 -4 8
-11 5 -16 -3 -5 1 -6 10 -2 12 4 13 8 5 13 -7 4 35 8 94 8 58 1 106 -2 106 -6
0 -6 57 -7 70 -1 13 6 178 4 168 -2 -6 -4 4 -6 23 -5 37 3 240 -48 224 -56 -6
-2 -4 -3 4 -1 8 2 23 -5 34 -14 11 -10 17 -12 13 -5 -5 8 0 21 12 32 29 27 36
137 28 473 -4 218 -8 282 -18 282 -7 1 -12 5 -11 10 1 6 -13 11 -30 12 -45 3
-59 23 -59 82 0 13 -3 20 -6 14 -5 -6 -20 -4 -42 6 -40 17 -238 25 -257 9 -6
-5 -24 -11 -40 -14 -15 -3 -37 -7 -48 -10 -17 -4 -18 -3 -5 6 13 10 13 11 0 7
-8 -2 -13 -12 -12 -23 2 -10 1 -16 -4 -12 -4 4 -13 3 -21 -3 -10 -9 -19 -7
-36 7 -18 16 -20 16 -8 1 12 -15 6 -14 -35 5 -27 13 -56 28 -64 33 -21 13
-230 16 -253 3 -14 -7 -17 -7 -13 1 4 6 2 11 -3 11 -6 0 -11 -7 -11 -16 0 -8
-5 -12 -10 -9 -6 4 -8 11 -5 16 10 15 -2 10 -16 -7z m831 -28 c31 -10 35 -15
38 -48 3 -32 8 -39 30 -44 15 -3 37 -9 50 -12 l23 -7 0 -365 c0 -321 -2 -365
-16 -368 -8 -2 -43 6 -78 17 -133 44 -295 66 -390 52 -32 -4 -83 -4 -115 1
-72 12 -212 -5 -330 -39 -48 -14 -102 -27 -120 -30 l-33 -5 3 43 c2 36 7 44
23 44 13 0 19 -6 18 -18 -1 -15 3 -17 20 -12 175 55 201 58 482 58 260 1 273
0 365 -25 52 -14 103 -29 113 -33 16 -7 17 11 15 321 l-3 328 -27 7 -28 7 0
-287 c0 -191 -4 -291 -11 -298 -7 -7 -33 -3 -87 15 -61 19 -99 25 -182 26 -58
0 -121 -1 -140 -2 -19 -2 -72 -1 -116 3 -88 8 -184 -5 -264 -35 -25 -9 -51
-15 -58 -12 -9 3 -12 75 -12 296 l0 293 -30 -5 -30 -4 0 -233 c0 -177 -3 -235
-13 -243 -34 -28 -37 -1 -35 253 l3 248 25 8 c14 4 37 10 53 13 24 6 27 11 27
46 0 37 2 40 38 49 53 15 198 13 259 -3 28 -8 72 -24 97 -36 33 -17 49 -20 58
-12 24 20 121 53 177 61 64 9 150 3 201 -13z m-858 -248 c-4 -136 -9 -148 -11
-27 -1 86 3 119 13 119 1 0 0 -42 -2 -92z m929 -35 c-1 -59 -4 -110 -7 -112
-3 -3 -4 48 -3 112 0 65 3 116 6 113 3 -3 5 -54 4 -113z m-930 -243 c2 -94 0
-115 -12 -112 -10 2 -9 -1 2 -11 9 -7 17 -21 17 -32 -1 -33 14 -65 26 -58 7 4
7 2 -1 -7 -15 -16 -60 -5 -60 14 0 8 4 13 8 11 4 -3 9 8 11 25 3 18 0 31 -9
34 -14 6 -12 48 3 53 5 2 8 49 6 105 -2 57 -1 101 2 98 2 -3 5 -57 7 -120z
m936 -113 c-2 -23 -3 -1 -3 48 0 50 1 68 3 42 2 -26 2 -67 0 -90z m-972 -37
c4 -6 1 -18 -6 -26 -11 -13 -14 -13 -27 0 -8 8 -11 19 -8 25 9 14 33 14 41 1z
m380 -20 c13 -6 15 -9 5 -9 -8 0 -22 4 -30 9 -18 12 -2 12 25 0z m322 -2 c-16
-10 -77 -10 -77 0 0 4 20 7 44 7 25 0 40 -3 33 -7z m269 -23 c-2 -32 -16 -63
-16 -37 0 7 -3 11 -7 11 -27 -4 -31 3 -13 21 11 11 20 25 20 30 0 6 4 10 10
10 5 0 8 -16 6 -35z m-639 19 c-3 -3 -12 -4 -19 -1 -8 3 -5 6 6 6 11 1 17 -2
13 -5z m240 0 c-3 -3 -12 -4 -19 -1 -8 3 -5 6 6 6 11 1 17 -2 13 -5z m213 -9
c0 -2 -9 -3 -19 -2 -11 0 -18 5 -15 9 4 6 34 0 34 -7z"/>
<path d="M250 882 l-25 -8 -3 -312 c-1 -182 1 -312 6 -312 5 0 29 7 53 17 32
12 79 16 176 17 l133 1 0 266 0 267 -23 15 c-65 42 -246 70 -317 49z m160 -26
c0 -4 7 -5 16 -2 20 8 136 -33 128 -45 -3 -5 0 -9 5 -9 6 0 11 -18 11 -40 0
-22 -5 -40 -11 -40 -5 0 -7 5 -4 10 3 6 -3 10 -15 10 -11 0 -33 8 -47 18 -18
11 -24 12 -19 4 7 -12 4 -12 -13 -2 -25 13 -121 19 -121 8 0 -5 -8 -8 -18 -8
-10 0 -24 -6 -31 -12 -11 -11 -12 -10 -6 1 6 10 2 12 -14 6 -11 -3 -21 -2 -21
3 0 13 29 24 42 15 7 -3 8 -1 4 6 -4 6 -16 9 -25 6 -15 -5 -18 1 -17 32 1 35
4 38 36 44 48 9 120 6 120 -5z m98 -133 c45 -17 50 -24 28 -42 -10 -8 -22 -7
-49 4 -42 17 -133 20 -173 5 -33 -13 -61 4 -43 26 28 34 154 38 237 7z m-226
-66 c10 -3 20 -2 22 2 3 5 17 9 31 10 97 8 145 2 163 -19 12 -13 13 -13 6 0
-5 10 0 8 15 -4 16 -14 18 -22 9 -27 -7 -4 -17 -4 -24 1 -6 6 -15 6 -19 2 -5
-4 -5 -2 -2 4 4 6 -10 11 -36 12 -23 1 -49 2 -57 2 -33 2 -80 -8 -93 -18 -13
-11 -48 -11 -47 1 0 4 0 19 0 35 0 15 4 22 8 16 4 -6 15 -13 24 -17z m288 -34
c-1 -42 -2 -46 -14 -31 -7 10 -15 17 -17 15 -2 -1 1 2 8 7 8 8 7 13 -5 23 -15
11 -15 14 -2 23 26 17 30 11 30 -37z m-70 -27 c23 -8 36 -20 38 -34 4 -26 5
-26 -65 -6 -38 11 -72 14 -107 10 -86 -12 -99 -11 -103 2 -13 35 160 56 237
28z m-27 -68 c10 -5 25 -7 33 -4 9 3 12 1 9 -4 -3 -6 -1 -10 4 -10 6 0 11 5
11 11 0 6 7 8 16 5 8 -3 12 -2 9 4 -3 6 -1 10 4 10 14 0 14 -77 1 -85 -6 -3
-14 5 -20 19 -5 14 -12 26 -15 26 -4 0 -3 -5 1 -11 4 -7 0 -9 -12 -6 -11 3
-35 9 -54 13 -19 3 -38 12 -42 18 -5 7 -8 8 -8 0 0 -6 -20 -10 -49 -10 -27 1
-47 -2 -44 -6 2 -5 -1 -8 -6 -8 -6 0 -11 5 -11 10 0 6 -6 5 -14 -2 -8 -7 -11
-17 -8 -23 3 -5 -1 -4 -10 3 -14 11 -32 52 -23 52 2 0 11 -7 19 -16 15 -14 16
-14 16 1 0 9 6 15 13 12 6 -2 26 2 42 9 31 14 104 10 138 -8z m15 -63 c40 -12
52 -20 52 -35 0 -24 -2 -24 -81 -4 -53 13 -71 14 -120 4 -57 -12 -83 -8 -76
13 11 34 141 47 225 22z m-108 -60 c8 0 21 4 29 9 10 7 12 6 6 -4 -6 -10 -4
-12 9 -7 9 4 30 0 46 -8 38 -20 67 -19 79 3 8 13 10 6 11 -33 l0 -50 -121 0
c-68 1 -113 -3 -102 -7 13 -6 11 -7 -9 -5 -16 3 -28 0 -28 -5 0 -6 -7 -8 -15
-4 -8 3 -15 1 -15 -4 0 -5 -8 -6 -17 -3 -9 4 -13 8 -7 10 5 2 7 25 6 52 l-4
48 42 0 c23 0 46 5 53 12 6 6 13 8 16 3 3 -4 13 -7 21 -7z"/>
<path d="M487 819 c7 -7 15 -10 18 -7 3 3 -2 9 -12 12 -14 6 -15 5 -6 -5z"/>
<path d="M430 786 c0 -2 7 -7 16 -10 8 -3 12 -2 9 4 -6 10 -25 14 -25 6z"/>
<path d="M360 660 c-8 -5 -10 -10 -5 -10 6 0 17 5 25 10 8 5 11 10 5 10 -5 0
-17 -5 -25 -10z"/>
<path d="M299 643 c-13 -16 -12 -17 3 -5 9 8 23 10 29 6 8 -4 9 -3 5 4 -10 17
-21 15 -37 -5z"/>
<path d="M261 637 c-8 -10 -7 -14 2 -14 8 0 14 6 14 14 0 7 -1 13 -2 13 -2 0
-8 -6 -14 -13z"/>
<path d="M450 526 c0 -2 8 -10 18 -17 15 -13 16 -12 3 4 -13 16 -21 21 -21 13z"/>
<path d="M750 871 c-30 -10 -68 -24 -83 -32 l-28 -15 -2 -269 -2 -270 100 3
c91 3 186 -10 248 -33 16 -7 17 12 17 308 l0 315 -31 6 c-58 11 -163 5 -219
-13z m190 -7 c29 -5 36 -11 38 -31 1 -13 -2 -22 -6 -19 -4 2 -6 -14 -3 -37 l3
-41 -27 18 c-15 10 -29 15 -32 13 -2 -3 -17 -2 -31 2 -15 4 -39 4 -54 0 -17
-4 -29 -3 -32 4 -3 9 -7 8 -14 -1 -5 -7 -16 -10 -25 -6 -10 3 -17 1 -17 -5 0
-6 -9 -11 -19 -11 -11 0 -26 -7 -35 -15 -19 -19 -27 -6 -24 40 1 21 7 35 15
35 7 0 13 5 13 12 0 6 7 3 15 -8 11 -14 14 -15 9 -2 -7 20 19 35 58 33 15 0
25 2 22 6 -8 14 89 22 146 13z m-2 -135 c29 -11 26 -46 -3 -41 -79 13 -148 13
-188 -1 -33 -11 -48 -12 -56 -4 -17 17 -13 27 17 38 72 28 169 31 230 8z
m-229 -80 c38 22 188 40 176 21 -3 -4 2 -10 10 -14 8 -3 15 0 15 6 0 7 5 6 15
-2 12 -10 15 -10 15 0 0 9 4 9 17 -1 11 -10 14 -10 9 -1 -4 6 -2 12 3 12 6 0
11 -16 11 -35 0 -40 -2 -41 -34 -20 -12 8 -34 16 -49 17 -15 1 -27 5 -27 8 0
4 -15 6 -34 6 -19 -1 -32 -4 -30 -8 2 -4 -10 -6 -27 -6 -17 1 -34 -3 -37 -9
-4 -5 -17 -9 -29 -8 -12 1 -20 -2 -17 -7 3 -4 -2 -8 -10 -8 -15 0 -21 -12 -17
-33 1 -5 -3 -6 -9 -2 -7 4 -7 12 0 26 8 14 7 19 -2 19 -6 0 -3 6 7 14 11 8 23
12 27 10 4 -2 9 0 12 5 7 10 -13 9 -30 -2 -7 -4 -14 0 -18 8 -3 8 -1 15 5 15
6 0 7 6 3 13 -4 6 3 3 15 -8 13 -11 26 -18 30 -16z m234 -54 c9 -4 17 -16 17
-27 0 -17 -4 -19 -27 -14 -72 18 -132 18 -183 1 -37 -12 -55 -14 -62 -7 -23
23 28 51 117 64 24 4 113 -7 138 -17z m-257 -74 c-2 -3 11 -7 30 -7 18 -1 32
3 31 9 -3 17 139 25 155 9 6 -6 17 -8 26 -5 10 4 13 2 8 -5 -5 -8 -2 -10 8 -6
9 3 13 11 9 17 -3 5 -1 7 4 4 15 -9 23 -69 9 -64 -6 3 -10 9 -9 14 1 6 -9 8
-22 5 -14 -2 -25 0 -25 5 0 5 -34 9 -75 8 -41 0 -75 -4 -75 -8 0 -5 -5 -5 -10
-2 -6 4 -17 1 -25 -5 -8 -7 -15 -9 -15 -4 -1 5 -12 -4 -25 -21 -14 -16 -25
-25 -26 -20 0 6 -2 18 -4 27 -2 10 1 21 6 24 6 3 5 12 -3 22 -11 13 -11 14 1
7 11 -6 13 -4 7 10 -5 15 -4 16 9 5 8 -7 13 -15 11 -19z m235 -53 c25 -7 39
-17 39 -28 0 -26 -7 -28 -67 -12 -50 12 -64 12 -126 -3 -46 -11 -72 -14 -79
-7 -40 40 139 79 233 50z m-212 -88 c9 0 27 6 41 13 31 16 93 30 86 19 -2 -4
15 -7 39 -7 24 0 41 -3 39 -7 -7 -11 40 -10 51 1 6 6 10 -14 10 -54 1 -35 -2
-60 -5 -54 -4 5 -15 7 -25 3 -14 -6 -16 -4 -10 6 6 10 4 12 -8 7 -9 -3 -19 -2
-22 3 -4 6 -11 10 -16 10 -6 0 -7 -5 -3 -12 4 -7 3 -8 -5 -4 -6 4 -58 9 -114
12 l-102 4 -1 52 c-1 50 -1 52 14 30 8 -12 22 -22 31 -22z"/>
<path d="M770 826 c0 -2 7 -7 16 -10 8 -3 12 -2 9 4 -6 10 -25 14 -25 6z"/>
<path d="M706 498 c3 -5 10 -6 15 -3 13 9 11 12 -6 12 -8 0 -12 -4 -9 -9z"/>
<path d="M146 183 c-6 -14 -5 -15 5 -6 7 7 10 15 7 18 -3 3 -9 -2 -12 -12z"/>
<path d="M522 951 c-11 -7 -11 -9 0 -14 9 -3 15 1 15 9 0 8 -1 14 -1 14 -1 0
-7 -4 -14 -9z"/>
<path d="M556 952 c-3 -4 4 -9 15 -9 23 -2 25 3 4 10 -8 4 -16 3 -19 -1z"/>
<path d="M700 950 c-9 -6 -10 -10 -3 -10 6 0 15 5 18 10 8 12 4 12 -15 0z"/>
<path d="M1166 865 c4 -8 8 -15 10 -15 2 0 4 7 4 15 0 8 -4 15 -10 15 -5 0 -7
-7 -4 -15z"/>
<path d="M1125 860 c-16 -7 -17 -9 -3 -9 9 -1 20 4 23 9 7 11 7 11 -20 0z"/>
<path d="M40 46 c0 -2 7 -7 16 -10 8 -3 12 -2 9 4 -6 10 -25 14 -25 6z"/>
<path d="M1176 38 c3 -5 10 -6 15 -3 13 9 11 12 -6 12 -8 0 -12 -4 -9 -9z"/>
<path d="M1176 8 c3 -5 10 -6 15 -3 13 9 11 12 -6 12 -8 0 -12 -4 -9 -9z"/>
</g>
</svg>
