				<svg xmlns="http://www.w3.org/2000/svg" xmlns:xlink="http://www.w3.org/1999/xlink" width="288px" height="288px" viewBox="0 0 144 144"><g id="surface1"><path style=" stroke:none;fill-rule:nonzero;fill:rgb(100%,100%,100%);fill-opacity:1;" d="M 84.855469 15.953125 C 85.914062 16.71875 86.960938 17.496094 88 18.285156 C 88.785156 18.851562 89.570312 19.417969 90.382812 20 C 97.90625 27.199219 101.265625 36.441406 103.238281 46.476562 C 103.488281 46.980469 103.742188 47.480469 104 48 C 104.464844 52.089844 103.265625 53.851562 100.953125 57.144531 C 100.355469 59.222656 100.355469 59.222656 100.191406 60.953125 C 100.625 61.046875 101.058594 61.140625 101.503906 61.238281 C 105.617188 62.335938 108.644531 63.816406 111.371094 67.132812 C 112.773438 70.183594 112.726562 73.015625 112.855469 76.332031 C 113.074219 81.4375 113.84375 84.5 117.46875 88.207031 C 118.800781 89.425781 120.160156 90.601562 121.546875 91.757812 C 124.597656 94.394531 124.597656 94.394531 125.332031 96.761719 C 125.277344 100.191406 125.011719 102.65625 123 105.476562 C 120.566406 107.597656 119.320312 108.160156 116.179688 108.320312 C 111.621094 107.933594 109.433594 105.242188 106.285156 102.09375 C 106.035156 112.90625 105.78125 123.71875 105.523438 134.859375 C 100.191406 135.621094 100.191406 135.621094 85.714844 134.859375 C 85.714844 116.503906 85.714844 98.148438 85.714844 79.238281 C 84.457031 79.488281 83.199219 79.742188 81.90625 80 C 82.023438 80.761719 82.140625 81.527344 82.265625 82.3125 C 82.414062 83.335938 82.566406 84.359375 82.714844 85.382812 C 82.792969 85.882812 82.871094 86.382812 82.953125 86.898438 C 83.503906 90.746094 83.9375 94.886719 81.667969 98.238281 C 80.382812 99.046875 80.382812 99.046875 77.332031 99.046875 C 77.710938 97.539062 77.710938 97.539062 78.09375 96 C 78.847656 96 79.605469 96 80.382812 96 C 79.625 89.589844 79.625 89.589844 78.855469 83.046875 C 77.347656 83.046875 75.839844 83.046875 74.285156 83.046875 C 74.285156 100.144531 74.285156 117.242188 74.285156 134.859375 C 67.75 134.859375 61.210938 134.859375 54.476562 134.859375 C 54.226562 117.761719 53.972656 100.664062 53.714844 83.046875 C 52.457031 82.796875 51.199219 82.546875 49.90625 82.285156 C 49.402344 86.8125 48.898438 91.335938 48.382812 96 C 49.386719 96.25 50.390625 96.503906 51.429688 96.761719 C 51.429688 97.515625 51.429688 98.269531 51.429688 99.046875 C 49.238281 98.808594 49.238281 98.808594 46.855469 98.285156 C 44.933594 95.402344 45.292969 93.34375 45.570312 90.046875 C 45.609375 89.515625 45.644531 88.980469 45.683594 88.433594 C 45.914062 85.332031 46.296875 82.296875 46.855469 79.238281 C 45.601562 78.734375 44.34375 78.234375 43.046875 77.714844 C 43.050781 78.417969 43.054688 79.121094 43.058594 79.84375 C 43.089844 86.460938 43.113281 93.074219 43.125 99.6875 C 43.132812 103.089844 43.144531 106.492188 43.164062 109.890625 C 43.179688 113.171875 43.1875 116.453125 43.191406 119.734375 C 43.195312 120.984375 43.199219 122.238281 43.207031 123.492188 C 43.21875 125.246094 43.222656 126.996094 43.21875 128.746094 C 43.222656 129.746094 43.226562 130.742188 43.230469 131.773438 C 43.046875 134.09375 43.046875 134.09375 41.523438 135.621094 C 35.632812 136.335938 28.957031 135.265625 23.238281 134.859375 C 23.238281 114.742188 23.238281 94.628906 23.238281 73.90625 C 24.746094 73.527344 24.746094 73.527344 26.285156 73.144531 C 26.285156 92.503906 26.285156 111.863281 26.285156 131.808594 C 28.046875 131.808594 29.804688 131.808594 31.617188 131.808594 C 31.617188 121.25 31.617188 110.691406 31.617188 99.808594 C 32.625 99.808594 33.628906 99.808594 34.667969 99.808594 C 34.667969 110.371094 34.667969 120.929688 34.667969 131.808594 C 36.425781 131.808594 38.1875 131.808594 40 131.808594 C 40 112.703125 40 93.59375 40 73.90625 C 39.496094 73.90625 38.996094 73.90625 38.476562 73.90625 C 37.394531 72.582031 36.371094 71.207031 35.382812 69.808594 C 34.835938 69.050781 34.292969 68.289062 33.734375 67.507812 C 32.382812 65.523438 32.382812 65.523438 31.617188 64 C 27.566406 64.304688 23.84375 65.667969 20.953125 68.570312 C 19.769531 72.128906 19.144531 75.535156 18.78125 79.257812 C 18.632812 80.730469 18.632812 80.730469 18.480469 82.226562 C 18.386719 83.246094 18.289062 84.265625 18.191406 85.285156 C 18.085938 86.328125 17.984375 87.367188 17.882812 88.40625 C 17.628906 90.9375 17.382812 93.46875 17.144531 96 C 18.148438 96.25 19.152344 96.503906 20.191406 96.761719 C 20.191406 97.515625 20.191406 98.269531 20.191406 99.046875 C 18 98.808594 18 98.808594 15.617188 98.285156 C 13.722656 95.441406 14.027344 93.492188 14.285156 90.238281 C 14.34375 89.390625 14.34375 89.390625 14.40625 88.527344 C 14.726562 84.203125 15.128906 79.886719 15.570312 75.570312 C 15.628906 74.996094 15.683594 74.417969 15.742188 73.820312 C 16.15625 70.078125 16.449219 67.503906 19.394531 65.042969 C 22.628906 62.941406 25.550781 61.160156 29.332031 60.191406 C 28.917969 57.277344 27.628906 56.066406 25.523438 54.09375 C 24.34375 51.734375 24.539062 49.84375 24.761719 47.238281 C 25.21875 46.671875 25.671875 46.105469 26.144531 45.523438 C 27.867188 43.355469 28.226562 42.210938 28.855469 39.570312 C 31.425781 29.320312 37.042969 20.800781 46.09375 15.238281 C 58.527344 8.851562 72.753906 8.199219 84.855469 15.953125 Z M 41.476562 29.90625 C 39.070312 33.320312 36.070312 38.398438 36.191406 42.667969 C 36.789062 43.265625 37.382812 43.863281 38 44.476562 C 40.496094 46.972656 40.699219 48.320312 40.761719 51.808594 C 40.046875 54.429688 40.046875 54.429688 39.238281 56.382812 C 38.734375 56.382812 38.230469 56.382812 37.714844 56.382812 C 37.929688 58.953125 38.234375 59.964844 40.144531 61.761719 C 41.671875 62.816406 43.230469 63.828125 44.808594 64.808594 C 45.824219 65.539062 45.824219 65.539062 46.855469 66.285156 C 46.855469 67.039062 46.855469 67.792969 46.855469 68.570312 C 46.101562 68.949219 46.101562 68.949219 45.332031 69.332031 C 46.339844 69.332031 47.34375 69.332031 48.382812 69.332031 C 48.445312 68.863281 48.507812 68.390625 48.570312 67.90625 C 49.144531 66.285156 49.144531 66.285156 50.507812 65.519531 C 51.339844 65.144531 51.339844 65.144531 52.191406 64.761719 C 52.703125 64.503906 53.214844 64.242188 53.742188 63.972656 C 54.25 63.714844 54.761719 63.457031 55.285156 63.191406 C 55.796875 62.929688 56.308594 62.671875 56.835938 62.402344 C 62.050781 59.929688 67.144531 60.710938 72.457031 62.4375 C 76.515625 64.214844 79.332031 66.824219 81.144531 70.859375 C 83.707031 69.796875 84.941406 68.585938 86.476562 66.285156 C 86.003906 66.523438 85.535156 66.757812 85.046875 67 C 84 67.523438 82.953125 68.046875 81.90625 68.570312 C 82 67.238281 82 67.238281 82.667969 65.523438 C 84.847656 63.839844 86.761719 62.636719 89.382812 61.761719 C 91.21875 61.089844 91.21875 61.089844 91.855469 59.144531 C 92.019531 57.03125 92.019531 57.03125 90.382812 55.476562 C 89.847656 55.019531 89.3125 54.566406 88.761719 54.09375 C 87.671875 51.910156 87.765625 50.429688 88 48 C 89.554688 45.214844 90.667969 43.679688 93.332031 41.90625 C 91.769531 33.457031 87.371094 27.074219 80.382812 22.09375 C 66.242188 14.28125 51.992188 18.433594 41.476562 29.90625 Z M 36.191406 45.714844 C 36.191406 48.230469 36.191406 50.742188 36.191406 53.332031 C 36.945312 53.082031 37.699219 52.832031 38.476562 52.570312 C 38.667969 50.382812 38.667969 50.382812 38.476562 48 C 37.722656 47.246094 36.96875 46.492188 36.191406 45.714844 Z M 91.761719 46.191406 C 89.910156 48.460938 90.027344 49.71875 90.285156 52.570312 C 91.792969 53.324219 91.792969 53.324219 93.332031 54.09375 C 94.34375 51.0625 94.148438 48.113281 94.09375 44.953125 C 93.101562 44.875 93.101562 44.875 91.761719 46.191406 Z M 50.667969 69.332031 C 50.476562 71.335938 50.476562 71.335938 50.667969 73.144531 C 52.40625 74.066406 52.40625 74.066406 54.476562 74.667969 C 56.21875 74.082031 56.21875 74.082031 57.523438 73.144531 C 57.773438 74.148438 58.027344 75.15625 58.285156 76.191406 C 62.558594 76.191406 66.835938 76.191406 71.238281 76.191406 C 71.238281 75.183594 71.238281 74.179688 71.238281 73.144531 C 71.945312 73.425781 72.652344 73.707031 73.382812 74 C 74.183594 74.21875 74.984375 74.441406 75.808594 74.667969 C 78.238281 73.421875 78.238281 73.421875 78.523438 71.382812 C 77.996094 68.867188 76.902344 67.894531 74.867188 66.390625 C 67.089844 61.371094 56.859375 61.757812 50.667969 69.332031 Z M 97.90625 63.238281 C 95.644531 66.503906 95.644531 66.503906 94.855469 70.238281 C 95.90625 72.140625 96.949219 73.332031 98.667969 74.667969 C 100.699219 74.921875 100.699219 74.921875 102.476562 74.667969 C 102.476562 74.164062 102.476562 73.660156 102.476562 73.144531 C 104.761719 73.90625 104.761719 73.90625 105.855469 75.761719 C 107.152344 77.886719 107.894531 78.265625 110.09375 79.238281 C 110.257812 73.363281 110.257812 73.363281 108.507812 67.90625 C 105.574219 65.308594 101.613281 64.253906 97.90625 63.238281 Z M 88.761719 80 C 88.761719 97.097656 88.761719 114.195312 88.761719 131.808594 C 90.523438 131.808594 92.28125 131.808594 94.09375 131.808594 C 94.09375 121.25 94.09375 110.691406 94.09375 99.808594 C 95.101562 99.808594 96.105469 99.808594 97.144531 99.808594 C 97.144531 110.371094 97.144531 120.929688 97.144531 131.808594 C 98.902344 131.808594 100.664062 131.808594 102.476562 131.808594 C 102.664062 127.066406 102.804688 122.324219 102.894531 117.578125 C 102.933594 115.96875 102.984375 114.359375 103.050781 112.746094 C 103.871094 103.347656 103.871094 103.347656 100.800781 94.828125 C 98.914062 92.980469 96.96875 91.484375 94.855469 89.90625 C 93.609375 87.917969 93.230469 86.425781 92.667969 84.09375 C 92.382812 83.246094 92.101562 82.398438 91.808594 81.523438 C 90.804688 81.019531 89.796875 80.519531 88.761719 80 Z M 57.523438 83.808594 C 57.523438 99.648438 57.523438 115.488281 57.523438 131.808594 C 59.285156 131.808594 61.042969 131.808594 62.855469 131.808594 C 62.855469 121.25 62.855469 110.691406 62.855469 99.808594 C 63.863281 99.808594 64.867188 99.808594 65.90625 99.808594 C 65.90625 110.371094 65.90625 120.929688 65.90625 131.808594 C 67.664062 131.808594 69.425781 131.808594 71.238281 131.808594 C 71.238281 116.222656 71.238281 100.632812 71.238281 84.570312 C 66.710938 84.320312 62.1875 84.070312 57.523438 83.808594 Z M 57.523438 83.808594 "></path><path style=" stroke:none;fill-rule:nonzero;fill:rgb(100%,100%,100%);fill-opacity:1;" d="M 74.285156 62.476562 C 77.304688 64.484375 79.980469 66.277344 80.925781 69.886719 C 80.996094 70.457031 81.070312 71.03125 81.144531 71.617188 C 80.640625 71.617188 80.136719 71.617188 79.617188 71.617188 C 79.617188 72.121094 79.617188 72.625 79.617188 73.144531 C 79.117188 73.144531 78.613281 73.144531 78.09375 73.144531 C 77.96875 72.46875 77.84375 71.792969 77.714844 71.09375 C 76.144531 67.628906 73.808594 66.417969 70.476562 64.761719 C 65.496094 63.101562 61.074219 63.492188 56.382812 65.808594 C 54.414062 66.875 53.011719 67.75 51.429688 69.332031 C 50.933594 71.292969 50.933594 71.292969 50.667969 73.144531 C 53.242188 73.785156 54.988281 73.988281 57.523438 73.144531 C 57.902344 74.273438 57.902344 74.273438 58.285156 75.429688 C 62.558594 75.679688 66.835938 75.929688 71.238281 76.191406 C 71.238281 75.183594 71.238281 74.179688 71.238281 73.144531 C 73.25 73.394531 75.261719 73.644531 77.332031 73.90625 C 77.332031 74.40625 77.332031 74.910156 77.332031 75.429688 C 76.578125 75.429688 75.824219 75.429688 75.046875 75.429688 C 75.425781 76.558594 75.425781 76.558594 75.808594 77.714844 C 75.476562 79.761719 75.476562 79.761719 75.046875 81.523438 C 76.304688 81.523438 77.5625 81.523438 78.855469 81.523438 C 78.355469 82.027344 77.851562 82.53125 77.332031 83.046875 C 76.328125 83.046875 75.320312 83.046875 74.285156 83.046875 C 74.285156 100.144531 74.285156 117.242188 74.285156 134.855469 C 67.75 134.855469 61.210938 134.855469 54.476562 134.855469 C 54.226562 117.761719 53.972656 100.664062 53.714844 83.046875 C 52.457031 82.796875 51.199219 82.542969 49.90625 82.285156 C 49.402344 86.8125 48.898438 91.335938 48.382812 96 C 49.386719 96.25 50.390625 96.503906 51.429688 96.761719 C 51.429688 97.515625 51.429688 98.269531 51.429688 99.046875 C 49.238281 98.808594 49.238281 98.808594 46.855469 98.285156 C 44.933594 95.402344 45.292969 93.34375 45.570312 90.046875 C 45.625 89.25 45.625 89.25 45.683594 88.433594 C 45.914062 85.332031 46.296875 82.296875 46.855469 79.238281 C 45.601562 78.734375 44.34375 78.230469 43.046875 77.714844 C 43.050781 78.417969 43.054688 79.121094 43.058594 79.84375 C 43.089844 86.460938 43.113281 93.074219 43.125 99.6875 C 43.132812 103.089844 43.144531 106.492188 43.164062 109.890625 C 43.179688 113.171875 43.1875 116.453125 43.191406 119.730469 C 43.195312 120.984375 43.199219 122.238281 43.207031 123.492188 C 43.21875 125.242188 43.222656 126.996094 43.21875 128.746094 C 43.222656 129.746094 43.226562 130.742188 43.230469 131.773438 C 43.046875 134.09375 43.046875 134.09375 41.523438 135.617188 C 35.632812 136.335938 28.957031 135.265625 23.238281 134.855469 C 23.238281 114.742188 23.238281 94.628906 23.238281 73.90625 C 24.242188 73.652344 25.25 73.402344 26.285156 73.144531 C 26.285156 92.503906 26.285156 111.863281 26.285156 131.808594 C 28.046875 131.808594 29.804688 131.808594 31.617188 131.808594 C 31.617188 121.25 31.617188 110.691406 31.617188 99.808594 C 32.625 99.808594 33.628906 99.808594 34.667969 99.808594 C 34.667969 110.371094 34.667969 120.929688 34.667969 131.808594 C 36.425781 131.808594 38.1875 131.808594 40 131.808594 C 40 112.699219 40 93.59375 40 73.90625 C 39.496094 73.90625 38.996094 73.90625 38.476562 73.90625 C 37.972656 72.898438 37.46875 71.894531 36.953125 70.855469 C 37.566406 71.015625 38.179688 71.171875 38.808594 71.332031 C 42.253906 71.695312 45.066406 70.984375 48.382812 70.09375 C 48.441406 69.515625 48.5 68.9375 48.5625 68.34375 C 49.460938 65.164062 51.511719 64.359375 54.21875 62.699219 C 60.796875 59.058594 67.542969 59.441406 74.285156 62.476562 Z M 57.523438 83.808594 C 57.523438 99.648438 57.523438 115.488281 57.523438 131.808594 C 59.285156 131.808594 61.042969 131.808594 62.855469 131.808594 C 62.855469 121.25 62.855469 110.691406 62.855469 99.808594 C 63.863281 99.808594 64.867188 99.808594 65.90625 99.808594 C 65.90625 110.371094 65.90625 120.929688 65.90625 131.808594 C 67.664062 131.808594 69.425781 131.808594 71.238281 131.808594 C 71.238281 116.222656 71.238281 100.632812 71.238281 84.570312 C 66.710938 84.320312 62.1875 84.070312 57.523438 83.808594 Z M 57.523438 83.808594 "></path><path style=" stroke:none;fill-rule:nonzero;fill:rgb(98.823529%,98.823529%,98.823529%);fill-opacity:1;" d="M 36.953125 70.855469 C 39.90625 72.285156 39.90625 72.285156 40.761719 73.144531 C 40.792969 74.667969 40.792969 76.191406 40.761719 77.714844 C 41.515625 77.714844 42.269531 77.714844 43.046875 77.714844 C 43.082031 85.039062 43.109375 92.363281 43.125 99.6875 C 43.132812 103.089844 43.144531 106.492188 43.164062 109.890625 C 43.179688 113.171875 43.1875 116.453125 43.191406 119.730469 C 43.195312 120.984375 43.199219 122.238281 43.207031 123.492188 C 43.21875 125.242188 43.222656 126.996094 43.21875 128.746094 C 43.222656 129.746094 43.226562 130.742188 43.230469 131.773438 C 43.046875 134.09375 43.046875 134.09375 41.523438 135.617188 C 35.632812 136.335938 28.957031 135.265625 23.238281 134.855469 C 23.238281 114.742188 23.238281 94.628906 23.238281 73.90625 C 24.242188 73.652344 25.25 73.402344 26.285156 73.144531 C 26.285156 92.503906 26.285156 111.863281 26.285156 131.808594 C 28.046875 131.808594 29.804688 131.808594 31.617188 131.808594 C 31.617188 121.25 31.617188 110.691406 31.617188 99.808594 C 32.625 99.808594 33.628906 99.808594 34.667969 99.808594 C 34.667969 110.371094 34.667969 120.929688 34.667969 131.808594 C 36.425781 131.808594 38.1875 131.808594 40 131.808594 C 40 112.699219 40 93.59375 40 73.90625 C 39.496094 73.90625 38.996094 73.90625 38.476562 73.90625 C 37.972656 72.898438 37.46875 71.894531 36.953125 70.855469 Z M 36.953125 70.855469 "></path><path style=" stroke:none;fill-rule:nonzero;fill:rgb(99.607843%,99.607843%,99.607843%);fill-opacity:1;" d="M 85.714844 78.476562 C 87.472656 78.726562 89.234375 78.980469 91.046875 79.238281 C 90.796875 79.742188 90.542969 80.242188 90.285156 80.761719 C 89.78125 80.511719 89.28125 80.257812 88.761719 80 C 88.761719 97.097656 88.761719 114.195312 88.761719 131.808594 C 90.523438 131.808594 92.28125 131.808594 94.09375 131.808594 C 94.09375 121.25 94.09375 110.691406 94.09375 99.808594 C 95.101562 99.808594 96.105469 99.808594 97.144531 99.808594 C 97.144531 110.371094 97.144531 120.929688 97.144531 131.808594 C 98.902344 131.808594 100.664062 131.808594 102.476562 131.808594 C 102.476562 120.496094 102.476562 109.179688 102.476562 97.523438 C 102.980469 97.773438 103.480469 98.027344 104 98.285156 C 104.25 99.039062 104.503906 99.792969 104.761719 100.570312 C 105.265625 100.824219 105.769531 101.074219 106.285156 101.332031 C 106.035156 112.394531 105.78125 123.460938 105.523438 134.855469 C 100.191406 135.617188 100.191406 135.617188 85.714844 134.855469 C 85.714844 116.25 85.714844 97.644531 85.714844 78.476562 Z M 85.714844 78.476562 "></path><path style=" stroke:none;fill-rule:nonzero;fill:rgb(100%,100%,100%);fill-opacity:1;" d="M 24 73.144531 C 24.753906 73.144531 25.507812 73.144531 26.285156 73.144531 C 26.285156 92.25 26.285156 111.359375 26.285156 131.046875 C 26.035156 131.046875 25.78125 131.046875 25.523438 131.046875 C 25.273438 124.007812 25.019531 116.96875 24.761719 109.714844 C 24.511719 117.761719 24.257812 125.804688 24 134.09375 C 26.515625 134.09375 29.027344 134.09375 31.617188 134.09375 C 31.617188 134.347656 31.617188 134.597656 31.617188 134.855469 C 28.851562 134.855469 26.085938 134.855469 23.238281 134.855469 C 23.21875 126.921875 23.207031 118.988281 23.199219 111.054688 C 23.195312 107.371094 23.1875 103.6875 23.179688 100.003906 C 23.171875 96.453125 23.167969 92.898438 23.164062 89.347656 C 23.164062 87.988281 23.160156 86.632812 23.15625 85.273438 C 23.152344 83.378906 23.152344 81.480469 23.152344 79.585938 C 23.148438 79.019531 23.144531 78.453125 23.144531 77.867188 C 23.152344 73.992188 23.152344 73.992188 24 73.144531 Z M 24 73.144531 "></path><path style=" stroke:none;fill-rule:nonzero;fill:rgb(100%,100%,100%);fill-opacity:1;" d="M 30.09375 57.90625 C 30.207031 58.359375 30.316406 58.816406 30.429688 59.285156 C 30.769531 60.617188 31.183594 61.933594 31.617188 63.238281 C 30.667969 63.609375 30.667969 63.609375 29.699219 63.992188 C 28.871094 64.324219 28.042969 64.65625 27.191406 65 C 26.367188 65.328125 25.546875 65.652344 24.699219 65.992188 C 22.050781 67.226562 22.050781 67.226562 20.191406 69.332031 C 19.78125 71.386719 19.5 73.316406 19.300781 75.390625 C 19.234375 75.980469 19.171875 76.566406 19.105469 77.171875 C 18.902344 79.050781 18.710938 80.929688 18.523438 82.808594 C 18.386719 84.082031 18.25 85.359375 18.113281 86.632812 C 17.78125 89.753906 17.457031 92.875 17.144531 96 C 18.148438 96.25 19.152344 96.503906 20.191406 96.761719 C 20.191406 97.515625 20.191406 98.269531 20.191406 99.046875 C 18 98.808594 18 98.808594 15.617188 98.285156 C 13.722656 95.441406 14.027344 93.492188 14.285156 90.238281 C 14.34375 89.390625 14.34375 89.390625 14.40625 88.527344 C 14.726562 84.203125 15.128906 79.882812 15.570312 75.570312 C 15.628906 74.992188 15.683594 74.417969 15.742188 73.820312 C 16.15625 70.078125 16.449219 67.503906 19.394531 65.042969 C 22.675781 62.90625 25.59375 61.40625 29.332031 60.191406 C 29.585938 59.4375 29.835938 58.683594 30.09375 57.90625 Z M 30.09375 57.90625 "></path><path style=" stroke:none;fill-rule:nonzero;fill:rgb(100%,100%,100%);fill-opacity:1;" d="M 61.269531 11.28125 C 62.464844 11.289062 63.660156 11.308594 64.855469 11.332031 C 65.46875 11.339844 66.078125 11.347656 66.707031 11.355469 C 68.21875 11.371094 69.726562 11.398438 71.238281 11.429688 C 71.238281 11.933594 71.238281 12.433594 71.238281 12.953125 C 73.25 12.953125 75.261719 12.953125 77.332031 12.953125 C 77.332031 13.457031 77.332031 13.957031 77.332031 14.476562 C 78.339844 14.476562 79.34375 14.476562 80.382812 14.476562 C 80.757812 16.363281 80.757812 16.363281 81.144531 18.285156 C 79.886719 19.039062 78.628906 19.792969 77.332031 20.570312 C 77.082031 19.816406 76.832031 19.0625 76.570312 18.285156 C 77.074219 18.285156 77.578125 18.285156 78.09375 18.285156 C 78.09375 17.78125 78.09375 17.28125 78.09375 16.761719 C 77.339844 17.515625 76.585938 18.269531 75.808594 19.046875 C 75.054688 18.796875 74.300781 18.546875 73.523438 18.285156 C 72.300781 18.199219 71.078125 18.152344 69.855469 18.125 C 69.148438 18.105469 68.4375 18.082031 67.710938 18.058594 C 66.21875 18.019531 64.726562 17.984375 63.234375 17.957031 C 62.527344 17.933594 61.820312 17.910156 61.09375 17.886719 C 60.445312 17.871094 59.796875 17.855469 59.128906 17.839844 C 58.597656 17.738281 58.070312 17.632812 57.523438 17.523438 C 57.019531 16.769531 56.519531 16.015625 56 15.238281 C 57.140625 11.8125 57.59375 11.464844 61.269531 11.28125 Z M 61.269531 11.28125 "></path><path style=" stroke:none;fill-rule:nonzero;fill:rgb(100%,100%,100%);fill-opacity:1;" d="M 67.429688 41.90625 C 70.050781 43.5 71.808594 45.046875 72.761719 48 C 73.136719 51.539062 72.675781 53.570312 70.476562 56.382812 C 68.042969 58.46875 66.867188 58.667969 63.617188 58.667969 C 60.390625 58.125 58.816406 56.648438 56.761719 54.09375 C 55.671875 51.910156 55.765625 50.429688 56 48 C 58.808594 42.964844 61.589844 40.96875 67.429688 41.90625 Z M 60.285156 46.191406 C 58.675781 48.542969 58.582031 49.773438 59.046875 52.570312 C 60.191406 54.476562 60.191406 54.476562 62.09375 55.617188 C 64.894531 56.085938 66.125 55.988281 68.476562 54.382812 C 70.085938 52.027344 70.179688 50.796875 69.714844 48 C 68.570312 46.09375 68.570312 46.09375 66.667969 44.953125 C 63.871094 44.484375 62.636719 44.582031 60.285156 46.191406 Z M 60.285156 46.191406 "></path><path style=" stroke:none;fill-rule:nonzero;fill:rgb(100%,100%,100%);fill-opacity:1;" d="M 32.382812 100.570312 C 32.882812 100.570312 33.386719 100.570312 33.90625 100.570312 C 33.90625 111.132812 33.90625 121.691406 33.90625 132.570312 C 37.675781 132.195312 37.675781 132.195312 41.523438 131.808594 C 41.523438 133.066406 41.523438 134.324219 41.523438 135.617188 C 35.425781 135.867188 30.175781 135.046875 24 134.09375 C 24 126.050781 24 118.003906 24 109.714844 C 24.503906 109.460938 25.003906 109.210938 25.523438 108.953125 C 25.542969 109.617188 25.5625 110.28125 25.582031 110.96875 C 25.652344 113.429688 25.730469 115.890625 25.808594 118.351562 C 25.839844 119.417969 25.871094 120.484375 25.902344 121.550781 C 25.945312 123.082031 25.996094 124.609375 26.042969 126.140625 C 26.074219 127.0625 26.101562 127.984375 26.128906 128.933594 C 26.050781 130.976562 26.050781 130.976562 27.046875 131.808594 C 28.808594 132.0625 30.566406 132.3125 32.382812 132.570312 C 32.382812 122.011719 32.382812 111.453125 32.382812 100.570312 Z M 32.382812 100.570312 "></path><path style=" stroke:none;fill-rule:nonzero;fill:rgb(100%,100%,100%);fill-opacity:1;" d="M 74.285156 62.476562 C 77.304688 64.484375 79.980469 66.277344 80.925781 69.886719 C 80.996094 70.457031 81.070312 71.03125 81.144531 71.617188 C 80.640625 71.617188 80.136719 71.617188 79.617188 71.617188 C 79.617188 72.121094 79.617188 72.625 79.617188 73.144531 C 79.117188 73.144531 78.613281 73.144531 78.09375 73.144531 C 77.90625 72.128906 77.90625 72.128906 77.714844 71.09375 C 76.144531 67.628906 73.808594 66.417969 70.476562 64.761719 C 65.496094 63.101562 61.074219 63.492188 56.382812 65.808594 C 53.160156 67.554688 51.460938 69.042969 49.90625 72.382812 C 49.921875 71.800781 49.9375 71.21875 49.953125 70.617188 C 50.003906 68.492188 50.003906 68.492188 49.144531 66.285156 C 57.410156 60.445312 64.660156 58.140625 74.285156 62.476562 Z M 74.285156 62.476562 "></path><path style=" stroke:none;fill-rule:nonzero;fill:rgb(100%,100%,100%);fill-opacity:1;" d="M 36.191406 32 C 37.082031 38.164062 37.082031 38.164062 36.476562 41.429688 C 36.382812 42.089844 36.289062 42.75 36.191406 43.429688 C 37.191406 44.875 37.191406 44.875 38.476562 45.714844 C 37.722656 45.964844 36.96875 46.21875 36.191406 46.476562 C 35.410156 48.074219 35.410156 48.074219 34.90625 49.953125 C 34.617188 50.898438 34.617188 50.898438 34.324219 51.859375 C 34.1875 52.347656 34.046875 52.832031 33.90625 53.332031 C 31.894531 53.082031 29.882812 52.832031 27.808594 52.570312 C 27.808594 51.3125 27.808594 50.058594 27.808594 48.761719 C 28.25 48.605469 28.691406 48.449219 29.144531 48.285156 C 31.527344 46.828125 32.570312 45.089844 33.90625 42.667969 C 33.652344 41.914062 33.402344 41.15625 33.144531 40.382812 C 31.542969 42.566406 31.542969 42.566406 30.855469 44.953125 C 30.355469 44.953125 29.851562 44.953125 29.332031 44.953125 C 29.332031 45.457031 29.332031 45.957031 29.332031 46.476562 C 28.832031 46.476562 28.328125 46.476562 27.808594 46.476562 C 28.3125 44.464844 28.816406 42.453125 29.332031 40.382812 C 29.835938 40.382812 30.339844 40.382812 30.855469 40.382812 C 30.824219 39.546875 30.792969 38.714844 30.761719 37.855469 C 30.855469 35.046875 30.855469 35.046875 32.382812 32.761719 C 34.667969 32 34.667969 32 36.191406 32 Z M 36.191406 32 "></path><path style=" stroke:none;fill-rule:nonzero;fill:rgb(100%,100%,100%);fill-opacity:1;" d="M 99.429688 60.953125 C 104.304688 61.417969 107.105469 63.339844 110.574219 66.707031 C 113.035156 69.722656 112.929688 72.769531 113.046875 76.523438 C 113.347656 82.53125 113.347656 82.53125 116.667969 87.382812 C 118.035156 88.460938 118.035156 88.460938 119.238281 89.144531 C 116.945312 89.855469 116.292969 89.9375 113.90625 89.144531 C 113.90625 88.640625 113.90625 88.136719 113.90625 87.617188 C 112.898438 87.367188 111.894531 87.117188 110.855469 86.855469 C 110.855469 84.847656 110.855469 82.835938 110.855469 80.761719 C 110.605469 80.761719 110.355469 80.761719 110.09375 80.761719 C 110.03125 79.972656 109.964844 79.183594 109.894531 78.367188 C 109.789062 77.324219 109.679688 76.28125 109.570312 75.238281 C 109.53125 74.71875 109.488281 74.199219 109.449219 73.664062 C 109.140625 70.925781 108.777344 69.542969 106.832031 67.546875 C 104.945312 66.398438 103.132812 65.421875 101.09375 64.570312 C 100.492188 64.316406 99.890625 64.0625 99.269531 63.796875 C 98.820312 63.613281 98.371094 63.429688 97.90625 63.238281 C 97.402344 64.242188 96.898438 65.25 96.382812 66.285156 C 96.632812 65.027344 96.882812 63.769531 97.144531 62.476562 C 97.898438 62.476562 98.652344 62.476562 99.429688 62.476562 C 99.429688 61.972656 99.429688 61.46875 99.429688 60.953125 Z M 99.429688 60.953125 "></path><path style=" stroke:none;fill-rule:nonzero;fill:rgb(100%,100%,100%);fill-opacity:1;" d="M 72.761719 83.046875 C 73.011719 83.046875 73.265625 83.046875 73.523438 83.046875 C 73.523438 100.144531 73.523438 117.242188 73.523438 134.855469 C 71.261719 134.855469 69 134.855469 66.667969 134.855469 C 66.667969 134.101562 66.667969 133.347656 66.667969 132.570312 C 68.175781 132.570312 69.683594 132.570312 71.238281 132.570312 C 71.246094 131.972656 71.253906 131.375 71.261719 130.757812 C 71.335938 125.132812 71.414062 119.503906 71.496094 113.875 C 71.539062 110.980469 71.578125 108.085938 71.617188 105.195312 C 71.652344 102.402344 71.691406 99.613281 71.734375 96.820312 C 71.75 95.753906 71.765625 94.6875 71.777344 93.621094 C 71.796875 92.132812 71.820312 90.640625 71.84375 89.152344 C 71.863281 87.875 71.863281 87.875 71.878906 86.578125 C 72 84.570312 72 84.570312 72.761719 83.046875 Z M 72.761719 83.046875 "></path><path style=" stroke:none;fill-rule:nonzero;fill:rgb(100%,100%,100%);fill-opacity:1;" d="M 102.476562 97.523438 C 103.230469 97.902344 103.230469 97.902344 104 98.285156 C 104.25 99.039062 104.503906 99.792969 104.761719 100.570312 C 105.265625 100.824219 105.769531 101.074219 106.285156 101.332031 C 106.035156 104.097656 105.78125 106.863281 105.523438 109.714844 C 105.019531 109.714844 104.519531 109.714844 104 109.714844 C 104.007812 110.605469 104.019531 111.5 104.027344 112.417969 C 104.070312 118.925781 104.035156 125.339844 103.238281 131.808594 C 102.988281 131.808594 102.734375 131.808594 102.476562 131.808594 C 102.476562 120.496094 102.476562 109.179688 102.476562 97.523438 Z M 102.476562 97.523438 "></path><path style=" stroke:none;fill-rule:nonzero;fill:rgb(100%,100%,100%);fill-opacity:1;" d="M 46.855469 79.238281 C 48.847656 81.523438 49.429688 82.878906 49.332031 85.90625 C 49.3125 86.566406 49.292969 87.230469 49.273438 87.910156 C 49.09375 90.632812 48.78125 93.300781 48.382812 96 C 49.386719 96.25 50.390625 96.503906 51.429688 96.761719 C 51.429688 97.515625 51.429688 98.269531 51.429688 99.046875 C 49.238281 98.808594 49.238281 98.808594 46.855469 98.285156 C 44.933594 95.402344 45.292969 93.34375 45.570312 90.046875 C 45.609375 89.515625 45.644531 88.980469 45.683594 88.433594 C 45.914062 85.332031 46.296875 82.296875 46.855469 79.238281 Z M 46.855469 79.238281 "></path><path style=" stroke:none;fill-rule:nonzero;fill:rgb(100%,100%,100%);fill-opacity:1;" d="M 81.144531 80.761719 C 81.394531 80.761719 81.644531 80.761719 81.90625 80.761719 C 82.183594 82.425781 82.453125 84.09375 82.714844 85.761719 C 82.863281 86.691406 83.015625 87.617188 83.167969 88.574219 C 83.476562 91.972656 83.636719 95.328125 81.667969 98.238281 C 80.382812 99.046875 80.382812 99.046875 77.332031 99.046875 C 77.585938 98.042969 77.835938 97.035156 78.09375 96 C 78.847656 96 79.605469 96 80.382812 96 C 79.878906 91.472656 79.375 86.949219 78.855469 82.285156 C 79.359375 82.285156 79.863281 82.285156 80.382812 82.285156 C 80.632812 81.78125 80.882812 81.28125 81.144531 80.761719 Z M 81.144531 80.761719 "></path><path style=" stroke:none;fill-rule:nonzero;fill:rgb(100%,100%,100%);fill-opacity:1;" d="M 24.761719 108.953125 C 25.011719 108.953125 25.265625 108.953125 25.523438 108.953125 C 25.773438 116.242188 26.027344 123.535156 26.285156 131.046875 C 28.046875 131.550781 29.804688 132.054688 31.617188 132.570312 C 31.617188 133.074219 31.617188 133.578125 31.617188 134.09375 C 29.105469 134.09375 26.589844 134.09375 24 134.09375 C 23.980469 130.636719 23.96875 127.179688 23.957031 123.71875 C 23.953125 122.542969 23.949219 121.367188 23.941406 120.1875 C 23.933594 118.5 23.929688 116.8125 23.925781 115.121094 C 23.921875 114.59375 23.917969 114.0625 23.914062 113.519531 C 23.914062 112.25 23.953125 110.980469 24 109.714844 C 24.25 109.460938 24.503906 109.210938 24.761719 108.953125 Z M 24.761719 108.953125 "></path><path style=" stroke:none;fill-rule:nonzero;fill:rgb(100%,100%,100%);fill-opacity:1;" d="M 90.285156 43.429688 C 91.09375 44.855469 91.09375 44.855469 91.808594 46.476562 C 91.558594 46.980469 91.308594 47.480469 91.046875 48 C 90.855469 50.285156 90.855469 50.285156 91.046875 52.570312 C 91.550781 53.074219 92.054688 53.578125 92.570312 54.09375 C 92.667969 56.855469 92.667969 56.855469 92.570312 59.429688 C 89.496094 56.515625 87.507812 54.625 86.953125 50.382812 C 87.308594 47.402344 88.488281 45.785156 90.285156 43.429688 Z M 90.285156 43.429688 "></path><path style=" stroke:none;fill-rule:nonzero;fill:rgb(100%,100%,100%);fill-opacity:1;" d="M 93.332031 80 C 93.332031 82.011719 93.332031 84.023438 93.332031 86.09375 C 93.835938 86.09375 94.339844 86.09375 94.855469 86.09375 C 94.855469 87.101562 94.855469 88.105469 94.855469 89.144531 C 95.359375 89.144531 95.863281 89.144531 96.382812 89.144531 C 96.382812 88.386719 96.382812 87.632812 96.382812 86.855469 C 98.265625 87.613281 98.265625 87.613281 100.191406 88.382812 C 99.9375 88.882812 99.6875 89.386719 99.429688 89.90625 C 100.191406 92.605469 101.199219 95.035156 102.476562 97.523438 C 96.421875 92.601562 92.914062 88.445312 91.046875 80.761719 C 92.570312 80 92.570312 80 93.332031 80 Z M 93.332031 80 "></path><path style=" stroke:none;fill-rule:nonzero;fill:rgb(100%,100%,100%);fill-opacity:1;" d="M 36.191406 38.855469 C 36.953125 41.144531 36.953125 41.144531 36.953125 42.667969 C 37.566406 43.214844 38.179688 43.765625 38.808594 44.332031 C 41.191406 46.945312 41.523438 48.304688 41.523438 51.808594 C 40.429688 54.429688 40.429688 54.429688 39.238281 56.382812 C 38.988281 55.625 38.734375 54.871094 38.476562 54.09375 C 37.722656 53.84375 36.96875 53.59375 36.191406 53.332031 C 36.691406 53.082031 37.195312 52.832031 37.714844 52.570312 C 37.769531 50.023438 37.765625 48.148438 36.953125 45.714844 C 37.203125 45.460938 37.457031 45.210938 37.714844 44.953125 C 36.960938 44.449219 36.207031 43.945312 35.429688 43.429688 C 35.679688 41.921875 35.929688 40.410156 36.191406 38.855469 Z M 36.191406 38.855469 "></path><path style=" stroke:none;fill-rule:nonzero;fill:rgb(100%,100%,100%);fill-opacity:1;" d="M 32.382812 130.285156 C 32.882812 130.285156 33.386719 130.285156 33.90625 130.285156 C 33.90625 131.039062 33.90625 131.792969 33.90625 132.570312 C 36.417969 132.320312 38.933594 132.070312 41.523438 131.808594 C 41.523438 133.066406 41.523438 134.324219 41.523438 135.617188 C 40.300781 135.640625 39.078125 135.65625 37.855469 135.667969 C 36.835938 135.679688 36.835938 135.679688 35.792969 135.695312 C 33.90625 135.617188 33.90625 135.617188 31.617188 134.855469 C 31.871094 133.347656 32.121094 131.839844 32.382812 130.285156 Z M 32.382812 130.285156 "></path><path style=" stroke:none;fill-rule:nonzero;fill:rgb(100%,100%,100%);fill-opacity:1;" d="M 76.570312 16.761719 C 77.074219 16.761719 77.578125 16.761719 78.09375 16.761719 C 77.84375 18.019531 77.59375 19.277344 77.332031 20.570312 C 76.421875 20.320312 75.511719 20.070312 74.570312 19.808594 C 67.351562 18.214844 60.042969 18.617188 52.953125 20.570312 C 53.714844 19.046875 53.714844 19.046875 55.160156 18.203125 C 58.644531 17.203125 62.011719 17.304688 65.617188 17.332031 C 66.347656 17.328125 67.074219 17.320312 67.820312 17.316406 C 68.519531 17.316406 69.214844 17.320312 69.933594 17.320312 C 70.570312 17.324219 71.203125 17.324219 71.855469 17.328125 C 73.523438 17.523438 73.523438 17.523438 75.808594 19.046875 C 76.0625 18.292969 76.3125 17.539062 76.570312 16.761719 Z M 76.570312 16.761719 "></path><path style=" stroke:none;fill-rule:nonzero;fill:rgb(100%,100%,100%);fill-opacity:1;" d="M 62.285156 42.429688 C 62.976562 42.507812 63.667969 42.585938 64.382812 42.667969 C 64.632812 43.167969 64.882812 43.671875 65.144531 44.191406 C 64.136719 44.191406 63.132812 44.191406 62.09375 44.191406 C 62.09375 44.695312 62.09375 45.195312 62.09375 45.714844 C 61.609375 46.1875 61.121094 46.65625 60.617188 47.144531 C 59.023438 48.789062 58.601562 49.589844 58.285156 51.808594 C 57.78125 51.808594 57.28125 51.808594 56.761719 51.808594 C 56.523438 48.761719 56.503906 46.945312 58 44.238281 C 59.808594 42.667969 59.808594 42.667969 62.285156 42.429688 Z M 62.285156 42.429688 "></path><path style=" stroke:none;fill-rule:nonzero;fill:rgb(100%,100%,100%);fill-opacity:1;" d="M 71.238281 73.144531 C 73.25 73.394531 75.261719 73.644531 77.332031 73.90625 C 77.332031 74.40625 77.332031 74.910156 77.332031 75.429688 C 76.578125 75.429688 75.824219 75.429688 75.046875 75.429688 C 75.300781 76.183594 75.550781 76.9375 75.808594 77.714844 C 74.332031 78.144531 74.332031 78.144531 72.761719 78.476562 C 72.511719 78.226562 72.257812 77.972656 72 77.714844 C 70.847656 77.539062 69.6875 77.398438 68.523438 77.285156 C 67.894531 77.222656 67.265625 77.15625 66.617188 77.09375 C 66.128906 77.046875 65.644531 77 65.144531 76.953125 C 65.144531 76.699219 65.144531 76.449219 65.144531 76.191406 C 67.152344 76.191406 69.164062 76.191406 71.238281 76.191406 C 71.238281 75.183594 71.238281 74.179688 71.238281 73.144531 Z M 71.238281 73.144531 "></path><path style=" stroke:none;fill-rule:nonzero;fill:rgb(100%,100%,100%);fill-opacity:1;" d="M 81.144531 80.761719 C 81.394531 80.761719 81.644531 80.761719 81.90625 80.761719 C 82.824219 84.320312 82.738281 87.78125 82.667969 91.429688 C 81.660156 91.175781 80.65625 90.925781 79.617188 90.667969 C 79.367188 87.902344 79.117188 85.136719 78.855469 82.285156 C 79.359375 82.285156 79.863281 82.285156 80.382812 82.285156 C 80.632812 81.78125 80.882812 81.28125 81.144531 80.761719 Z M 81.144531 80.761719 "></path><path style=" stroke:none;fill-rule:nonzero;fill:rgb(100%,100%,100%);fill-opacity:1;" d="M 46.855469 79.238281 C 48.992188 81.636719 49.410156 83.097656 49.285156 86.285156 C 49.265625 86.964844 49.246094 87.644531 49.222656 88.34375 C 49.195312 88.859375 49.171875 89.375 49.144531 89.90625 C 48.890625 89.402344 48.640625 88.898438 48.382812 88.382812 C 47.878906 88.382812 47.375 88.382812 46.855469 88.382812 C 46.605469 89.386719 46.355469 90.390625 46.09375 91.429688 C 46.019531 87.277344 45.996094 83.324219 46.855469 79.238281 Z M 46.855469 79.238281 "></path><path style=" stroke:none;fill-rule:nonzero;fill:rgb(100%,100%,100%);fill-opacity:1;" d="M 44.570312 64.761719 C 45.578125 65.265625 46.582031 65.769531 47.617188 66.285156 C 47.117188 67.292969 46.613281 68.296875 46.09375 69.332031 C 46.597656 69.332031 47.101562 69.332031 47.617188 69.332031 C 48.121094 68.832031 48.625 68.328125 49.144531 67.808594 C 48.890625 68.816406 48.640625 69.820312 48.382812 70.855469 C 47.125 70.855469 45.867188 70.855469 44.570312 70.855469 C 44.570312 69.851562 44.570312 68.847656 44.570312 67.808594 C 44.070312 67.808594 43.566406 67.808594 43.046875 67.808594 C 43.046875 67.308594 43.046875 66.804688 43.046875 66.285156 C 43.550781 66.285156 44.054688 66.285156 44.570312 66.285156 C 44.570312 65.78125 44.570312 65.28125 44.570312 64.761719 Z M 44.570312 64.761719 "></path><path style=" stroke:none;fill-rule:nonzero;fill:rgb(100%,100%,100%);fill-opacity:1;" d="M 71.238281 131.046875 C 72.382812 132.09375 72.382812 132.09375 73.523438 133.332031 C 73.523438 133.835938 73.523438 134.339844 73.523438 134.855469 C 71.261719 134.855469 69 134.855469 66.667969 134.855469 C 66.667969 134.101562 66.667969 133.347656 66.667969 132.570312 C 68.175781 132.570312 69.683594 132.570312 71.238281 132.570312 C 71.238281 132.070312 71.238281 131.566406 71.238281 131.046875 Z M 71.238281 131.046875 "></path><path style=" stroke:none;fill-rule:nonzero;fill:rgb(100%,100%,100%);fill-opacity:1;" d="M 56 48 C 56.25 48 56.503906 48 56.761719 48 C 56.761719 49.257812 56.761719 50.515625 56.761719 51.808594 C 57.265625 51.808594 57.769531 51.808594 58.285156 51.808594 C 58.539062 50.804688 58.789062 49.796875 59.046875 48.761719 C 59.269531 49.46875 59.488281 50.175781 59.714844 50.90625 C 60.484375 53.40625 60.484375 53.40625 62.09375 55.617188 C 61.089844 55.367188 60.082031 55.117188 59.046875 54.855469 C 59.300781 55.359375 59.550781 55.863281 59.808594 56.382812 C 57.523438 55.617188 57.523438 55.617188 56.617188 54.332031 C 55.851562 52.152344 55.894531 50.292969 56 48 Z M 56 48 "></path><path style=" stroke:none;fill-rule:nonzero;fill:rgb(100%,100%,100%);fill-opacity:1;" d="M 30.09375 35.046875 C 30.347656 35.046875 30.597656 35.046875 30.855469 35.046875 C 30.855469 36.808594 30.855469 38.566406 30.855469 40.382812 C 30.355469 40.382812 29.851562 40.382812 29.332031 40.382812 C 29.378906 41.207031 29.378906 41.207031 29.429688 42.046875 C 29.328125 44.347656 28.761719 45.917969 27.808594 48 C 27.054688 47.496094 26.300781 46.996094 25.523438 46.476562 C 26.050781 45.859375 26.050781 45.859375 26.585938 45.226562 C 27.976562 43.183594 28.496094 41.4375 29.09375 39.046875 C 29.285156 38.296875 29.476562 37.546875 29.675781 36.773438 C 29.8125 36.203125 29.953125 35.632812 30.09375 35.046875 Z M 30.09375 35.046875 "></path><path style=" stroke:none;fill-rule:nonzero;fill:rgb(100%,100%,100%);fill-opacity:1;" d="M 65.144531 60.953125 C 70.800781 60.734375 70.800781 60.734375 73.523438 62.476562 C 73.523438 62.980469 73.523438 63.480469 73.523438 64 C 69 63.246094 69 63.246094 64.382812 62.476562 C 64.632812 61.972656 64.882812 61.46875 65.144531 60.953125 Z M 65.144531 60.953125 "></path><path style=" stroke:none;fill-rule:nonzero;fill:rgb(100%,100%,100%);fill-opacity:1;" d="M 103.238281 98.285156 C 103.992188 99.417969 103.992188 99.417969 104.761719 100.570312 C 105.265625 100.824219 105.769531 101.074219 106.285156 101.332031 C 106.035156 104.097656 105.78125 106.863281 105.523438 109.714844 C 105.273438 109.714844 105.019531 109.714844 104.761719 109.714844 C 104.761719 108.207031 104.761719 106.695312 104.761719 105.144531 C 104.257812 105.144531 103.757812 105.144531 103.238281 105.144531 C 103.238281 102.878906 103.238281 100.617188 103.238281 98.285156 Z M 103.238281 98.285156 "></path><path style=" stroke:none;fill-rule:nonzero;fill:rgb(100%,100%,100%);fill-opacity:1;" d="M 24.761719 47.238281 C 25.011719 47.238281 25.265625 47.238281 25.523438 47.238281 C 25.773438 48.496094 26.027344 49.753906 26.285156 51.046875 C 26.789062 50.292969 27.292969 49.539062 27.808594 48.761719 C 28.0625 51.277344 28.3125 53.789062 28.570312 56.382812 C 26.285156 55.617188 26.285156 55.617188 25.382812 54.382812 C 24.550781 51.960938 24.664062 49.777344 24.761719 47.238281 Z M 24.761719 47.238281 "></path><path style=" stroke:none;fill-rule:nonzero;fill:rgb(100%,100%,100%);fill-opacity:1;" d="M 69.714844 45.714844 C 72 46.476562 72 46.476562 72.761719 48 C 72.792969 49.523438 72.796875 51.046875 72.761719 52.570312 C 72.007812 52.824219 71.253906 53.074219 70.476562 53.332031 C 70.226562 50.820312 69.972656 48.304688 69.714844 45.714844 Z M 69.714844 45.714844 "></path><path style=" stroke:none;fill-rule:nonzero;fill:rgb(100%,100%,100%);fill-opacity:1;" d="M 84.191406 63.238281 C 84.691406 63.488281 85.195312 63.742188 85.714844 64 C 85.460938 64.25 85.210938 64.503906 84.953125 64.761719 C 85.457031 65.265625 85.957031 65.769531 86.476562 66.285156 C 83.617188 68.570312 83.617188 68.570312 81.90625 68.570312 C 81.652344 67.816406 81.402344 67.0625 81.144531 66.285156 C 82.148438 65.28125 83.152344 64.273438 84.191406 63.238281 Z M 84.191406 63.238281 "></path><path style=" stroke:none;fill-rule:nonzero;fill:rgb(100%,100%,100%);fill-opacity:1;" d="M 30.09375 57.90625 C 30.207031 58.375 30.316406 58.847656 30.429688 59.332031 C 30.804688 60.976562 30.804688 60.976562 31.617188 62.476562 C 29.859375 62.726562 28.097656 62.980469 26.285156 63.238281 C 26.285156 62.484375 26.285156 61.730469 26.285156 60.953125 C 27.015625 60.835938 27.015625 60.835938 27.761719 60.714844 C 28.28125 60.542969 28.800781 60.367188 29.332031 60.191406 C 29.585938 59.4375 29.835938 58.683594 30.09375 57.90625 Z M 30.09375 57.90625 "></path><path style=" stroke:none;fill-rule:nonzero;fill:rgb(100%,100%,100%);fill-opacity:1;" d="M 89.523438 53.332031 C 90.53125 53.585938 91.535156 53.835938 92.570312 54.09375 C 92.570312 55.855469 92.570312 57.617188 92.570312 59.429688 C 91.046875 58.09375 91.046875 58.09375 89.523438 56.382812 C 89.523438 55.375 89.523438 54.371094 89.523438 53.332031 Z M 89.523438 53.332031 "></path><path style=" stroke:none;fill-rule:nonzero;fill:rgb(100%,100%,100%);fill-opacity:1;" d="M 36.191406 32 C 37.195312 32 38.203125 32 39.238281 32 C 39.238281 34.574219 38.570312 36.445312 37.714844 38.855469 C 37.460938 38.855469 37.210938 38.855469 36.953125 38.855469 C 36.699219 36.59375 36.449219 34.332031 36.191406 32 Z M 36.191406 32 "></path><path style=" stroke:none;fill-rule:nonzero;fill:rgb(100%,100%,100%);fill-opacity:1;" d="M 38.238281 133.191406 C 38.820312 133.238281 39.402344 133.285156 40 133.332031 C 40 133.835938 40 134.339844 40 134.859375 C 40.503906 135.109375 41.007812 135.359375 41.523438 135.621094 C 39.011719 135.621094 36.496094 135.621094 33.90625 135.621094 C 36.191406 133.332031 36.191406 133.332031 38.238281 133.191406 Z M 38.238281 133.191406 "></path><path style=" stroke:none;fill-rule:nonzero;fill:rgb(100%,100%,100%);fill-opacity:1;" d="M 15.617188 96 C 16.875 96 18.132812 96 19.429688 96 C 19.679688 97.003906 19.929688 98.011719 20.191406 99.046875 C 18.933594 98.796875 17.675781 98.542969 16.382812 98.285156 C 16.128906 97.53125 15.878906 96.777344 15.617188 96 Z M 15.617188 96 "></path><path style=" stroke:none;fill-rule:nonzero;fill:rgb(100%,100%,100%);fill-opacity:1;" d="M 100.191406 61.714844 C 101.949219 61.964844 103.710938 62.21875 105.523438 62.476562 C 105.523438 63.230469 105.523438 63.984375 105.523438 64.761719 C 103.707031 64.324219 101.96875 63.832031 100.191406 63.238281 C 100.191406 62.734375 100.191406 62.230469 100.191406 61.714844 Z M 100.191406 61.714844 "></path><path style=" stroke:none;fill-rule:nonzero;fill:rgb(100%,100%,100%);fill-opacity:1;" d="M 104 132.570312 C 103.496094 133.578125 102.996094 134.582031 102.476562 135.617188 C 101.21875 135.367188 99.960938 135.117188 98.667969 134.855469 C 98.667969 134.355469 98.667969 133.851562 98.667969 133.332031 C 102.285156 132.570312 102.285156 132.570312 104 132.570312 Z M 104 132.570312 "></path><path style=" stroke:none;fill-rule:nonzero;fill:rgb(100%,100%,100%);fill-opacity:1;" d="M 36.953125 23.617188 C 37.203125 24.625 37.457031 25.628906 37.714844 26.667969 C 36.960938 26.667969 36.207031 26.667969 35.429688 26.667969 C 35.679688 27.421875 35.929688 28.175781 36.191406 28.953125 C 35.183594 29.203125 34.179688 29.457031 33.144531 29.714844 C 34.046875 27.144531 34.875 25.410156 36.953125 23.617188 Z M 36.953125 23.617188 "></path><path style=" stroke:none;fill-rule:nonzero;fill:rgb(100%,100%,100%);fill-opacity:1;" d="M 71.238281 73.144531 C 73.25 73.394531 75.261719 73.644531 77.332031 73.90625 C 77.332031 74.40625 77.332031 74.910156 77.332031 75.429688 C 76.609375 75.414062 75.886719 75.398438 75.144531 75.382812 C 72.832031 75.257812 72.832031 75.257812 71.238281 76.191406 C 71.238281 75.183594 71.238281 74.179688 71.238281 73.144531 Z M 71.238281 73.144531 "></path><path style=" stroke:none;fill-rule:nonzero;fill:rgb(100%,100%,100%);fill-opacity:1;" d="M 50.667969 65.523438 C 50.917969 66.027344 51.167969 66.53125 51.429688 67.046875 C 51.929688 67.300781 52.433594 67.550781 52.953125 67.808594 C 52.449219 68.3125 51.945312 68.816406 51.429688 69.332031 C 50.898438 70.335938 50.386719 71.351562 49.90625 72.382812 C 49.921875 71.800781 49.9375 71.21875 49.953125 70.617188 C 50.003906 68.492188 50.003906 68.492188 49.144531 66.285156 C 49.644531 66.035156 50.148438 65.78125 50.667969 65.523438 Z M 50.667969 65.523438 "></path><path style=" stroke:none;fill-rule:nonzero;fill:rgb(100%,100%,100%);fill-opacity:1;" d="M 56.761719 46.476562 C 57.515625 46.476562 58.269531 46.476562 59.046875 46.476562 C 58.796875 48.234375 58.542969 49.996094 58.285156 51.808594 C 57.78125 51.808594 57.28125 51.808594 56.761719 51.808594 C 56.761719 50.050781 56.761719 48.289062 56.761719 46.476562 Z M 56.761719 46.476562 "></path><path style=" stroke:none;fill-rule:nonzero;fill:rgb(100%,100%,100%);fill-opacity:1;" d="M 57.523438 12.191406 C 54.585938 13.832031 52.53125 14.773438 49.144531 14.476562 C 52.050781 12.167969 53.855469 11.050781 57.523438 12.191406 Z M 57.523438 12.191406 "></path></g></svg>	