<svg xmlns="http://www.w3.org/2000/svg" xmlns:xlink="http://www.w3.org/1999/xlink" width="64" height="65" xml:space="preserve" overflow="hidden"><g transform="translate(-75 -155)"><path d="M34.7701 23.334C34.9611 23.334 35.1501 23.3451 35.3375 23.3629L35.3375 13.334 54.0042 13.334 54.0042 24.6673 38.5263 24.6673C38.9974 25.0483 39.4088 25.4977 39.7467 26.0007L44.0042 26.0007 44.0042 28.6673 40.7636 28.6673 41.0493 30.0007 48.6695 30.0007 48.6695 28.6673 45.3375 28.6673 45.3375 26.0007 54.6709 26.0007C55.0389 26.0007 55.3374 25.7025 55.3375 25.3343 55.3375 25.3342 55.3375 25.3341 55.3375 25.334L55.3375 12.6673C55.3376 12.2993 55.0393 12.0007 54.6712 12.0007 54.6711 12.0007 54.6709 12.0007 54.6709 12.0007L34.6709 12.0007C34.3027 12.0006 34.0043 12.2989 34.0042 12.667 34.0042 12.6671 34.0042 12.6672 34.0042 12.6673L34.0042 23.334Z" fill="#FFC000" transform="matrix(1 0 0 1.01562 75 155)"></path><path d="M9.3372 26.0007 18.6705 26.0007 18.6705 28.6673 15.3359 28.6673 15.3359 30.0007 22.9585 30.0007 23.2441 28.6673 20.0039 28.6673 20.0039 26.0007 24.2609 26.0007C24.5987 25.4977 25.01 25.0483 25.4811 24.6673L10.0039 24.6673 10.0039 13.334 28.6705 13.334 28.6705 23.3629C28.8578 23.3449 29.0466 23.334 29.2375 23.334L30.0039 23.334 30.0039 12.6673C30.0039 12.2992 29.7056 12.0007 29.3375 12.0007 29.3374 12.0007 29.3373 12.0007 29.3372 12.0007L9.3372 12.0007C8.96907 12.0005 8.6706 12.2989 8.67053 12.6669 8.67053 12.6671 8.67053 12.6672 8.67053 12.6673L8.67053 25.334C8.6704 25.7021 8.96873 26.0005 9.3368 26.0007 9.33693 26.0007 9.33707 26.0007 9.3372 26.0007Z" fill="#FFC000" transform="matrix(1 0 0 1.01562 75 155)"></path><path d="M22.6727 31.334 6.67053 31.334C6.30233 31.334 6.00385 31.6325 6.00385 32.0007 6.00385 32.3689 6.30233 32.6673 6.67053 32.6673L11.8917 32.6673 8.7072 53.0485 10.0564 53.0485 13.2409 32.6673 22.3871 32.6673Z" fill="#FFC000" transform="matrix(1 0 0 1.01562 75 155)"></path><path d="M57.3372 31.334 41.335 31.334 41.6207 32.6673 50.7667 32.6673 53.9513 53.0485 55.3005 53.0485 52.1159 32.6673 57.3372 32.6673C57.7054 32.6673 58.0039 32.3689 58.0039 32.0007 58.0039 31.6325 57.7054 31.334 57.3372 31.334Z" fill="#FFC000" transform="matrix(1 0 0 1.01562 75 155)"></path><path d="M26.8697 44.6627 25.7793 53.0485 27.1239 53.0485 28.2137 44.6673 35.7938 44.6673 36.8836 53.0485 38.2282 53.0485 37.1378 44.6627C39.7119 44.6207 41.7645 42.5 41.7224 39.9259 41.7175 39.6223 41.6828 39.3197 41.619 39.0227L39.3332 28.3561C38.8637 26.2096 36.9673 24.6765 34.7701 24.6673L29.2375 24.6673C27.0403 24.6765 25.1437 26.2095 24.6743 28.3561L22.3885 39.0227C21.8477 41.5397 23.4496 44.0185 25.9665 44.5593 26.2635 44.6231 26.566 44.6578 26.8697 44.6627ZM23.6926 39.3027 25.9784 28.6361C26.3132 27.1026 27.6679 26.0071 29.2375 26.0007L34.7701 26.0007C36.3397 26.0073 37.6944 27.1026 38.0295 28.6361L40.315 39.3027C40.7007 41.1026 39.5543 42.8743 37.7544 43.26 37.5248 43.3092 37.2907 43.334 37.0559 43.334L26.9517 43.334C25.111 43.3341 23.6187 41.842 23.6186 40.0013 23.6186 39.7665 23.6434 39.5323 23.6926 39.3027Z" fill="#FFC000" transform="matrix(1 0 0 1.01562 75 155)"></path></g></svg>