<svg xmlns="http://www.w3.org/2000/svg" xmlns:xlink="http://www.w3.org/1999/xlink" width="108" height="107" xml:space="preserve" overflow="hidden"><defs><clipPath id="clip0"><path d="M66.9326 623.117 125.667 575.351 173.433 634.086 114.698 681.851Z" fill-rule="evenodd" clip-rule="evenodd"></path></clipPath><clipPath id="clip1"><path d="M66.9326 623.117 125.667 575.351 173.433 634.086 114.698 681.851Z" fill-rule="evenodd" clip-rule="evenodd"></path></clipPath><clipPath id="clip2"><path d="M66.9326 623.117 125.667 575.351 173.433 634.086 114.698 681.851Z" fill-rule="evenodd" clip-rule="evenodd"></path></clipPath></defs><g transform="translate(-66 -575)"><g clip-path="url(#clip0)"><g clip-path="url(#clip1)"><g clip-path="url(#clip2)"><path d="M143.439 610.748C144.909 609.553 144.533 607.298 142.433 604.716 139.17 600.704 132.138 596.56 127.407 600.408L117.983 608.071C117.358 608.128 116.758 608.343 116.239 608.695 115.407 608.362 114.484 608.333 113.634 608.616 112.861 608.864 112.186 609.347 111.703 609.999 110.906 610.044 110.142 610.34 109.522 610.843 108.827 611.407 108.345 612.192 108.156 613.068 106.542 613.764 105.597 615.459 105.853 617.199 105.513 617.594 105.256 618.054 105.097 618.551L90.6975 630.261C87.2667 633.051 88.076 639.536 92.5402 645.026 96.986 650.492 103.136 652.608 106.575 649.87L120.997 638.147 128.958 647.936 131.22 638.219 141.194 637.985 133.233 628.195 147.611 616.503C147.949 616.228 148 615.731 147.725 615.393 147.451 615.056 146.954 615.004 146.616 615.279 144.57 617.074 141.459 616.878 139.654 614.842L139.156 614.231ZM107.615 617.691 107.471 617.215C107.316 616.663 107.38 616.072 107.651 615.566 107.947 614.994 108.469 614.573 109.091 614.404L109.619 614.25 109.657 613.701C109.76 612.437 110.855 611.488 112.121 611.565L112.604 611.578 112.835 611.154C113.116 610.656 113.577 610.285 114.123 610.116 114.724 609.908 115.386 609.975 115.933 610.299L116.431 610.594 116.862 610.208C117.332 609.766 117.976 609.556 118.616 609.636 119.185 609.697 119.71 609.968 120.09 610.396L120.425 610.763 120.901 610.62C121.453 610.465 122.044 610.529 122.55 610.799 123.122 611.095 123.543 611.618 123.711 612.239L123.865 612.767 124.414 612.804C125.056 612.85 125.648 613.163 126.049 613.666 126.408 614.109 126.588 614.671 126.551 615.241L126.519 615.743 126.961 615.983C127.459 616.265 127.83 616.726 127.999 617.272 128.207 617.872 128.14 618.534 127.817 619.081L127.521 619.578 127.907 620.009C128.346 620.482 128.555 621.124 128.478 621.764 128.416 622.332 128.145 622.857 127.72 623.238L127.352 623.572 127.495 624.048C127.65 624.6 127.586 625.191 127.316 625.697 127.02 626.269 126.497 626.691 125.876 626.859L125.348 627.013 125.31 627.562C125.207 628.826 124.111 629.776 122.845 629.698L122.362 629.686 122.132 630.11C121.85 630.608 121.389 630.979 120.843 631.148 120.242 631.355 119.58 631.288 119.033 630.965L118.536 630.67 118.105 631.056C117.633 631.495 116.991 631.704 116.35 631.627 115.782 631.566 115.256 631.295 114.876 630.868L114.542 630.5 114.066 630.643C113.514 630.798 112.923 630.734 112.417 630.464 111.845 630.168 111.423 629.646 111.255 629.024L111.101 628.496 110.552 628.458C109.911 628.413 109.318 628.101 108.918 627.598 108.56 627.142 108.382 626.572 108.417 625.994L108.429 625.511 108.005 625.281C107.508 624.999 107.136 624.538 106.967 623.992 106.759 623.391 106.826 622.73 107.15 622.183L107.445 621.685 107.059 621.255C106.62 620.781 106.412 620.14 106.488 619.499 106.551 618.931 106.821 618.407 107.247 618.026ZM105.005 620.659C105.111 621.094 105.294 621.506 105.547 621.876 105.213 622.708 105.185 623.631 105.468 624.481 105.716 625.253 106.199 625.928 106.85 626.411 106.896 627.209 107.191 627.972 107.694 628.593 108.258 629.289 109.043 629.771 109.919 629.959 110.27 630.789 110.903 631.467 111.707 631.873 112.427 632.247 113.247 632.383 114.05 632.262 114.122 632.324 114.201 632.374 114.277 632.431L105.818 639.31C105.698 637.622 105.053 636.014 103.973 634.711 101.067 631.138 97.6975 629.139 94.757 628.992ZM105.624 648.615C102.971 650.773 97.5399 648.673 93.764 644.03 89.9881 639.387 89.0396 633.642 91.6928 631.484 94.3945 629.287 98.9412 631.023 102.749 635.706 102.87 635.856 105.696 639.409 103.288 641.368 101.961 642.447 99.3594 641.537 97.6063 639.381 97.2435 638.937 96.9304 638.454 96.6729 637.941 96.4782 637.552 96.0046 637.394 95.6149 637.588 95.2252 637.783 95.0671 638.257 95.2617 638.646 95.5711 639.262 95.9469 639.842 96.3827 640.376 98.7543 643.292 102.224 644.265 104.283 642.591L115.9 633.143C115.997 633.161 116.091 633.186 116.189 633.196 116.449 633.221 116.71 633.221 116.97 633.194L120.002 636.923ZM131.183 636.642 129.961 636.67 129.684 637.861 128.151 644.444 118.567 632.658C118.619 632.626 118.676 632.603 118.728 632.568 119.559 632.902 120.482 632.93 121.333 632.648 122.105 632.4 122.78 631.916 123.263 631.265 124.061 631.22 124.824 630.924 125.444 630.421 126.14 629.857 126.622 629.072 126.81 628.196 127.64 627.846 128.318 627.212 128.724 626.409 128.862 626.131 128.967 625.837 129.037 625.535L137.94 636.483ZM143.188 618.067 132.238 626.972 129.476 623.575C129.79 623.076 129.986 622.512 130.047 621.926 130.058 621.827 130.05 621.731 130.053 621.633L137.933 615.225 138.43 615.837C139.602 617.256 141.348 618.074 143.188 618.067ZM129.7 619.888C129.62 619.714 129.526 619.547 129.42 619.387 129.754 618.556 129.782 617.632 129.499 616.782 129.253 616.014 128.773 615.341 128.126 614.859 128.077 614.058 127.779 613.293 127.272 612.671 126.708 611.975 125.923 611.493 125.047 611.305 124.351 609.69 122.656 608.746 120.917 609.002 120.65 608.774 120.355 608.583 120.038 608.433L128.402 601.632C132.129 598.6 138.235 602.054 141.21 605.712 142.598 607.419 143.105 608.986 142.444 609.524Z" fill="#FFC000"></path><path d="M122.212 626.721C125.515 624.035 126.015 619.181 123.329 615.878 120.643 612.575 115.788 612.075 112.485 614.761 109.183 617.447 108.683 622.302 111.369 625.605 114.057 628.903 118.908 629.402 122.212 626.721ZM113.481 615.985C116.108 613.848 119.969 614.246 122.105 616.873 124.242 619.5 123.844 623.361 121.217 625.498 118.59 627.634 114.729 627.236 112.592 624.609 110.46 621.981 110.857 618.123 113.481 615.985Z" fill="#FFC000"></path></g></g></g></g></svg>